<?xml version="1.0" encoding="UTF-8" standalone="no"?>
<!DOCTYPE svg PUBLIC "-//W3C//DTD SVG 1.1//EN"
 "http://www.w3.org/Graphics/SVG/1.1/DTD/svg11.dtd">
<!-- Generated by graphviz version 2.38.0 (20140413.2041)
 -->
<!-- Title: Entity::getBaseDEF Pages: 1 -->
<svg width="256pt" height="142pt"
 viewBox="0.00 0.00 256.00 142.00" xmlns="http://www.w3.org/2000/svg" xmlns:xlink="http://www.w3.org/1999/xlink">
<g id="graph0" class="graph" transform="scale(1 1) rotate(0) translate(4 138)">
<title>Entity::getBaseDEF</title>
<polygon fill="white" stroke="none" points="-4,4 -4,-138 252,-138 252,4 -4,4"/>
<!-- Node1 -->
<g id="node1" class="node"><title>Node1</title>
<g id="a_node1"><a xlink:title="Gets Entity&#39;s Base Defense.">
<polygon fill="#bfbfbf" stroke="black" points="144,-57.5 144,-76.5 248,-76.5 248,-57.5 144,-57.5"/>
<text text-anchor="middle" x="196" y="-64.5" font-family="Helvetica,sans-Serif" font-size="10.00">Entity::getBaseDEF</text>
</a>
</g>
</g>
<!-- Node2 -->
<g id="node2" class="node"><title>Node2</title>
<g id="a_node2"><a xlink:href="$class_player.html#ae30e579efad256523585a947932bcf7f" xlink:title="Attack an Enemy.">
<polygon fill="white" stroke="black" points="0,-114.5 0,-133.5 108,-133.5 108,-114.5 0,-114.5"/>
<text text-anchor="middle" x="54" y="-121.5" font-family="Helvetica,sans-Serif" font-size="10.00">Player::attackEnemy</text>
</a>
</g>
</g>
<!-- Node1&#45;&gt;Node2 -->
<g id="edge1" class="edge"><title>Node1&#45;&gt;Node2</title>
<path fill="none" stroke="midnightblue" d="M164.835,-80.7743C148.188,-88.2238 127.08,-97.4232 108,-105 99.8238,-108.247 90.8459,-111.559 82.6405,-114.489"/>
<polygon fill="midnightblue" stroke="midnightblue" points="166.39,-83.9127 174.071,-76.6159 163.516,-77.5298 166.39,-83.9127"/>
</g>
<!-- Node3 -->
<g id="node3" class="node"><title>Node3</title>
<g id="a_node3"><a xlink:href="$class_enemy.html#a558ca434ca4938c167580db520d2a7d1" xlink:title="Attack Player without taking Damage from it.">
<polygon fill="white" stroke="black" points="0,-76.5 0,-95.5 108,-95.5 108,-76.5 0,-76.5"/>
<text text-anchor="middle" x="54" y="-83.5" font-family="Helvetica,sans-Serif" font-size="10.00">Enemy::attackPlayer</text>
</a>
</g>
</g>
<!-- Node1&#45;&gt;Node3 -->
<g id="edge2" class="edge"><title>Node1&#45;&gt;Node3</title>
<path fill="none" stroke="midnightblue" d="M133.499,-75.3466C125.069,-76.4906 116.473,-77.6572 108.209,-78.7788"/>
<polygon fill="midnightblue" stroke="midnightblue" points="134.226,-78.7801 143.664,-73.967 133.284,-71.8437 134.226,-78.7801"/>
</g>
<!-- Node4 -->
<g id="node4" class="node"><title>Node4</title>
<g id="a_node4"><a xlink:href="$class_player.html#a8eb7206d12e28c347a785530ab1ecf71" xlink:title="Writes out the Player&#39;s info to an output.">
<polygon fill="white" stroke="black" points="2,-38.5 2,-57.5 106,-57.5 106,-38.5 2,-38.5"/>
<text text-anchor="middle" x="54" y="-45.5" font-family="Helvetica,sans-Serif" font-size="10.00">Player::getInfoEntity</text>
</a>
</g>
</g>
<!-- Node1&#45;&gt;Node4 -->
<g id="edge3" class="edge"><title>Node1&#45;&gt;Node4</title>
<path fill="none" stroke="midnightblue" d="M133.529,-58.6574C124.449,-57.4252 115.175,-56.1666 106.33,-54.9662"/>
<polygon fill="midnightblue" stroke="midnightblue" points="133.284,-62.1563 143.664,-60.033 134.226,-55.2199 133.284,-62.1563"/>
</g>
<!-- Node5 -->
<g id="node5" class="node"><title>Node5</title>
<g id="a_node5"><a xlink:href="$class_enemy.html#a5e801697dc4608bc549ad08f3c584127" xlink:title="Displays the info of an Enemy, dynamically controlable with an InfoPreset.">
<polygon fill="white" stroke="black" points="0.5,-0.5 0.5,-19.5 107.5,-19.5 107.5,-0.5 0.5,-0.5"/>
<text text-anchor="middle" x="54" y="-7.5" font-family="Helvetica,sans-Serif" font-size="10.00">Enemy::getInfoEntity</text>
</a>
</g>
</g>
<!-- Node1&#45;&gt;Node5 -->
<g id="edge4" class="edge"><title>Node1&#45;&gt;Node5</title>
<path fill="none" stroke="midnightblue" d="M164.835,-53.2257C148.188,-45.7762 127.08,-36.5768 108,-29 99.8238,-25.7531 90.8459,-22.4409 82.6405,-19.5106"/>
<polygon fill="midnightblue" stroke="midnightblue" points="163.516,-56.4702 174.071,-57.3841 166.39,-50.0873 163.516,-56.4702"/>
</g>
</g>
</svg>
