<?xml version="1.0" encoding="UTF-8" standalone="no"?>
<!DOCTYPE svg PUBLIC "-//W3C//DTD SVG 1.1//EN"
 "http://www.w3.org/Graphics/SVG/1.1/DTD/svg11.dtd">
<!-- Generated by graphviz version 2.38.0 (20140413.2041)
 -->
<!-- Title: Entity Pages: 1 -->
<svg width="212pt" height="347pt"
 viewBox="0.00 0.00 212.00 347.00" xmlns="http://www.w3.org/2000/svg" xmlns:xlink="http://www.w3.org/1999/xlink">
<g id="graph0" class="graph" transform="scale(1 1) rotate(0) translate(4 343)">
<title>Entity</title>
<polygon fill="white" stroke="none" points="-4,4 -4,-343 208,-343 208,4 -4,4"/>
<!-- Node1 -->
<g id="node1" class="node"><title>Node1</title>
<g id="a_node1"><a xlink:title="An alive Entity can be a Player or an Enemy (for now). It has HP, a Name and basic attributes,...">
<polygon fill="#bfbfbf" stroke="black" points="53,-182.5 53,-338.5 143,-338.5 143,-182.5 53,-182.5"/>
<text text-anchor="middle" x="98" y="-326.5" font-family="Helvetica,sans-Serif" font-size="10.00">Entity</text>
<polyline fill="none" stroke="black" points="53,-319.5 143,-319.5 "/>
<text text-anchor="middle" x="98" y="-307.5" font-family="Helvetica,sans-Serif" font-size="10.00"> </text>
<polyline fill="none" stroke="black" points="53,-300.5 143,-300.5 "/>
<text text-anchor="start" x="61" y="-288.5" font-family="Helvetica,sans-Serif" font-size="10.00">+ Entity()</text>
<text text-anchor="start" x="61" y="-277.5" font-family="Helvetica,sans-Serif" font-size="10.00">+ Entity()</text>
<text text-anchor="start" x="61" y="-266.5" font-family="Helvetica,sans-Serif" font-size="10.00">+ ~Entity()</text>
<text text-anchor="start" x="61" y="-255.5" font-family="Helvetica,sans-Serif" font-size="10.00">+ getName()</text>
<text text-anchor="start" x="61" y="-244.5" font-family="Helvetica,sans-Serif" font-size="10.00">+ getBaseDMG()</text>
<text text-anchor="start" x="61" y="-233.5" font-family="Helvetica,sans-Serif" font-size="10.00">+ getBaseDEF()</text>
<text text-anchor="start" x="61" y="-222.5" font-family="Helvetica,sans-Serif" font-size="10.00">+ getHP()</text>
<text text-anchor="start" x="61" y="-211.5" font-family="Helvetica,sans-Serif" font-size="10.00">+ getMaxHP()</text>
<text text-anchor="start" x="61" y="-200.5" font-family="Helvetica,sans-Serif" font-size="10.00">+ setHP()</text>
<text text-anchor="start" x="61" y="-189.5" font-family="Helvetica,sans-Serif" font-size="10.00">+ getInfoEntity()</text>
</a>
</g>
</g>
<!-- Node2 -->
<g id="node2" class="node"><title>Node2</title>
<g id="a_node2"><a xlink:href="$class_enemy.html" xlink:title="Enemy can attack a Player without the Player damaging it, every Enemy will have a Level,...">
<polygon fill="white" stroke="black" points="0,-22.5 0,-123.5 86,-123.5 86,-22.5 0,-22.5"/>
<text text-anchor="middle" x="43" y="-111.5" font-family="Helvetica,sans-Serif" font-size="10.00">Enemy</text>
<polyline fill="none" stroke="black" points="0,-104.5 86,-104.5 "/>
<text text-anchor="middle" x="43" y="-92.5" font-family="Helvetica,sans-Serif" font-size="10.00"> </text>
<polyline fill="none" stroke="black" points="0,-85.5 86,-85.5 "/>
<text text-anchor="start" x="8" y="-73.5" font-family="Helvetica,sans-Serif" font-size="10.00">+ Enemy()</text>
<text text-anchor="start" x="8" y="-62.5" font-family="Helvetica,sans-Serif" font-size="10.00">+ Enemy()</text>
<text text-anchor="start" x="8" y="-51.5" font-family="Helvetica,sans-Serif" font-size="10.00">+ ~Enemy()</text>
<text text-anchor="start" x="8" y="-40.5" font-family="Helvetica,sans-Serif" font-size="10.00">+ attackPlayer()</text>
<text text-anchor="start" x="8" y="-29.5" font-family="Helvetica,sans-Serif" font-size="10.00">+ getInfoEntity()</text>
</a>
</g>
</g>
<!-- Node1&#45;&gt;Node2 -->
<g id="edge1" class="edge"><title>Node1&#45;&gt;Node2</title>
<path fill="none" stroke="midnightblue" d="M72.2288,-172.581C67.2391,-155.752 62.1731,-138.666 57.6916,-123.551"/>
<polygon fill="none" stroke="midnightblue" points="68.9545,-173.85 75.1529,-182.443 75.6658,-171.86 68.9545,-173.85"/>
</g>
<!-- Node3 -->
<g id="node3" class="node"><title>Node3</title>
<g id="a_node3"><a xlink:href="$class_player.html" xlink:title="Player has Gold and a Storage in which it can hold some Item. The Player will be able to spend Gold i...">
<polygon fill="white" stroke="black" points="104,-0.5 104,-145.5 204,-145.5 204,-0.5 104,-0.5"/>
<text text-anchor="middle" x="154" y="-133.5" font-family="Helvetica,sans-Serif" font-size="10.00">Player</text>
<polyline fill="none" stroke="black" points="104,-126.5 204,-126.5 "/>
<text text-anchor="middle" x="154" y="-114.5" font-family="Helvetica,sans-Serif" font-size="10.00"> </text>
<polyline fill="none" stroke="black" points="104,-107.5 204,-107.5 "/>
<text text-anchor="start" x="112" y="-95.5" font-family="Helvetica,sans-Serif" font-size="10.00">+ Player()</text>
<text text-anchor="start" x="112" y="-84.5" font-family="Helvetica,sans-Serif" font-size="10.00">+ Player()</text>
<text text-anchor="start" x="112" y="-73.5" font-family="Helvetica,sans-Serif" font-size="10.00">+ ~Player()</text>
<text text-anchor="start" x="112" y="-62.5" font-family="Helvetica,sans-Serif" font-size="10.00">+ getInfoEntity()</text>
<text text-anchor="start" x="112" y="-51.5" font-family="Helvetica,sans-Serif" font-size="10.00">+ getGold()</text>
<text text-anchor="start" x="112" y="-40.5" font-family="Helvetica,sans-Serif" font-size="10.00">+ getStorageType()</text>
<text text-anchor="start" x="112" y="-29.5" font-family="Helvetica,sans-Serif" font-size="10.00">+ attackEnemy()</text>
<text text-anchor="start" x="112" y="-18.5" font-family="Helvetica,sans-Serif" font-size="10.00">+ attackEnemy()</text>
<text text-anchor="start" x="112" y="-7.5" font-family="Helvetica,sans-Serif" font-size="10.00">+ Heal()</text>
</a>
</g>
</g>
<!-- Node1&#45;&gt;Node3 -->
<g id="edge2" class="edge"><title>Node1&#45;&gt;Node3</title>
<path fill="none" stroke="midnightblue" d="M124.203,-172.703C126.925,-163.686 129.67,-154.592 132.335,-145.767"/>
<polygon fill="none" stroke="midnightblue" points="120.802,-171.858 121.263,-182.443 127.503,-173.881 120.802,-171.858"/>
</g>
</g>
</svg>
