<?xml version="1.0" encoding="UTF-8" standalone="no"?>
<!DOCTYPE svg PUBLIC "-//W3C//DTD SVG 1.1//EN"
 "http://www.w3.org/Graphics/SVG/1.1/DTD/svg11.dtd">
<!-- Generated by graphviz version 2.38.0 (20140413.2041)
 -->
<!-- Title: Entity::getHP Pages: 1 -->
<svg width="227pt" height="180pt"
 viewBox="0.00 0.00 227.00 180.00" xmlns="http://www.w3.org/2000/svg" xmlns:xlink="http://www.w3.org/1999/xlink">
<g id="graph0" class="graph" transform="scale(1 1) rotate(0) translate(4 176)">
<title>Entity::getHP</title>
<polygon fill="white" stroke="none" points="-4,4 -4,-176 223,-176 223,4 -4,4"/>
<!-- Node1 -->
<g id="node1" class="node"><title>Node1</title>
<g id="a_node1"><a xlink:title="Gets Entity&#39;s HP.">
<polygon fill="#bfbfbf" stroke="black" points="144,-76.5 144,-95.5 219,-95.5 219,-76.5 144,-76.5"/>
<text text-anchor="middle" x="181.5" y="-83.5" font-family="Helvetica,sans-Serif" font-size="10.00">Entity::getHP</text>
</a>
</g>
</g>
<!-- Node2 -->
<g id="node2" class="node"><title>Node2</title>
<g id="a_node2"><a xlink:href="$class_player.html#ae30e579efad256523585a947932bcf7f" xlink:title="Attack an Enemy.">
<polygon fill="white" stroke="black" points="0,-152.5 0,-171.5 108,-171.5 108,-152.5 0,-152.5"/>
<text text-anchor="middle" x="54" y="-159.5" font-family="Helvetica,sans-Serif" font-size="10.00">Player::attackEnemy</text>
</a>
</g>
</g>
<!-- Node1&#45;&gt;Node2 -->
<g id="edge1" class="edge"><title>Node1&#45;&gt;Node2</title>
<path fill="none" stroke="midnightblue" d="M163.018,-102.401C149.005,-114.864 128.379,-131.728 108,-143 101.414,-146.643 93.9948,-149.813 86.8397,-152.466"/>
<polygon fill="midnightblue" stroke="midnightblue" points="165.405,-104.962 170.453,-95.6476 160.698,-99.7806 165.405,-104.962"/>
</g>
<!-- Node3 -->
<g id="node3" class="node"><title>Node3</title>
<g id="a_node3"><a xlink:href="$class_enemy.html#a558ca434ca4938c167580db520d2a7d1" xlink:title="Attack Player without taking Damage from it.">
<polygon fill="white" stroke="black" points="0,-114.5 0,-133.5 108,-133.5 108,-114.5 0,-114.5"/>
<text text-anchor="middle" x="54" y="-121.5" font-family="Helvetica,sans-Serif" font-size="10.00">Enemy::attackPlayer</text>
</a>
</g>
</g>
<!-- Node1&#45;&gt;Node3 -->
<g id="edge2" class="edge"><title>Node1&#45;&gt;Node3</title>
<path fill="none" stroke="midnightblue" d="M139.101,-98.5353C122.028,-103.705 102.561,-109.599 86.6588,-114.414"/>
<polygon fill="midnightblue" stroke="midnightblue" points="140.274,-101.837 148.831,-95.589 138.246,-95.1372 140.274,-101.837"/>
</g>
<!-- Node4 -->
<g id="node4" class="node"><title>Node4</title>
<g id="a_node4"><a xlink:href="$class_player.html#a8eb7206d12e28c347a785530ab1ecf71" xlink:title="Writes out the Player&#39;s info to an output.">
<polygon fill="white" stroke="black" points="2,-76.5 2,-95.5 106,-95.5 106,-76.5 2,-76.5"/>
<text text-anchor="middle" x="54" y="-83.5" font-family="Helvetica,sans-Serif" font-size="10.00">Player::getInfoEntity</text>
</a>
</g>
</g>
<!-- Node1&#45;&gt;Node4 -->
<g id="edge3" class="edge"><title>Node1&#45;&gt;Node4</title>
<path fill="none" stroke="midnightblue" d="M133.669,-86C124.767,-86 115.407,-86 106.372,-86"/>
<polygon fill="midnightblue" stroke="midnightblue" points="133.863,-89.5001 143.863,-86 133.863,-82.5001 133.863,-89.5001"/>
</g>
<!-- Node5 -->
<g id="node5" class="node"><title>Node5</title>
<g id="a_node5"><a xlink:href="$class_enemy.html#a5e801697dc4608bc549ad08f3c584127" xlink:title="Displays the info of an Enemy, dynamically controlable with an InfoPreset.">
<polygon fill="white" stroke="black" points="0.5,-38.5 0.5,-57.5 107.5,-57.5 107.5,-38.5 0.5,-38.5"/>
<text text-anchor="middle" x="54" y="-45.5" font-family="Helvetica,sans-Serif" font-size="10.00">Enemy::getInfoEntity</text>
</a>
</g>
</g>
<!-- Node1&#45;&gt;Node5 -->
<g id="edge4" class="edge"><title>Node1&#45;&gt;Node5</title>
<path fill="none" stroke="midnightblue" d="M139.101,-73.4647C122.028,-68.2952 102.561,-62.4009 86.6588,-57.5859"/>
<polygon fill="midnightblue" stroke="midnightblue" points="138.246,-76.8628 148.831,-76.411 140.274,-70.1632 138.246,-76.8628"/>
</g>
<!-- Node6 -->
<g id="node6" class="node"><title>Node6</title>
<g id="a_node6"><a xlink:href="$class_player.html#abcb7d3223f85a71cc8c69dee6f87f3e4" xlink:title="Healing with an Item.">
<polygon fill="white" stroke="black" points="19,-0.5 19,-19.5 89,-19.5 89,-0.5 19,-0.5"/>
<text text-anchor="middle" x="54" y="-7.5" font-family="Helvetica,sans-Serif" font-size="10.00">Player::Heal</text>
</a>
</g>
</g>
<!-- Node1&#45;&gt;Node6 -->
<g id="edge5" class="edge"><title>Node1&#45;&gt;Node6</title>
<path fill="none" stroke="midnightblue" d="M163.018,-69.5988C149.005,-57.1362 128.379,-40.2722 108,-29 101.414,-25.357 93.9948,-22.1865 86.8397,-19.534"/>
<polygon fill="midnightblue" stroke="midnightblue" points="160.698,-72.2194 170.453,-76.3524 165.405,-67.0379 160.698,-72.2194"/>
</g>
</g>
</svg>
