<?xml version="1.0" encoding="UTF-8" standalone="no"?>
<!DOCTYPE svg PUBLIC "-//W3C//DTD SVG 1.1//EN"
 "http://www.w3.org/Graphics/SVG/1.1/DTD/svg11.dtd">
<!-- Generated by graphviz version 2.38.0 (20140413.2041)
 -->
<!-- Title: Enemy::attackPlayer Pages: 1 -->
<svg width="372pt" height="256pt"
 viewBox="0.00 0.00 372.00 256.00" xmlns="http://www.w3.org/2000/svg" xmlns:xlink="http://www.w3.org/1999/xlink">
<g id="graph0" class="graph" transform="scale(1 1) rotate(0) translate(4 252)">
<title>Enemy::attackPlayer</title>
<polygon fill="white" stroke="none" points="-4,4 -4,-252 368,-252 368,4 -4,4"/>
<!-- Node1 -->
<g id="node1" class="node"><title>Node1</title>
<g id="a_node1"><a xlink:title="Attack Player without taking Damage from it.">
<polygon fill="#bfbfbf" stroke="black" points="0,-114.5 0,-133.5 108,-133.5 108,-114.5 0,-114.5"/>
<text text-anchor="middle" x="54" y="-121.5" font-family="Helvetica,sans-Serif" font-size="10.00">Enemy::attackPlayer</text>
</a>
</g>
</g>
<!-- Node2 -->
<g id="node2" class="node"><title>Node2</title>
<g id="a_node2"><a xlink:href="$class_entity.html#a181a9ed8c2f4b8cbf2c1799808840b98" xlink:title="Gets Entity&#39;s Base Defense.">
<polygon fill="white" stroke="black" points="147,-228.5 147,-247.5 251,-247.5 251,-228.5 147,-228.5"/>
<text text-anchor="middle" x="199" y="-235.5" font-family="Helvetica,sans-Serif" font-size="10.00">Entity::getBaseDEF</text>
</a>
</g>
</g>
<!-- Node1&#45;&gt;Node2 -->
<g id="edge1" class="edge"><title>Node1&#45;&gt;Node2</title>
<path fill="none" stroke="midnightblue" d="M61.4649,-133.509C74.7721,-152.402 107.092,-194.916 144,-219 146.961,-220.932 150.142,-222.694 153.425,-224.297"/>
<polygon fill="midnightblue" stroke="midnightblue" points="152.281,-227.616 162.847,-228.396 155.074,-221.197 152.281,-227.616"/>
</g>
<!-- Node3 -->
<g id="node3" class="node"><title>Node3</title>
<g id="a_node3"><a xlink:href="$class_entity.html#ae28f385cd28512190092c60f4ef03e4b" xlink:title="Gets Entity&#39;s Base Damage.">
<polygon fill="white" stroke="black" points="145.5,-190.5 145.5,-209.5 252.5,-209.5 252.5,-190.5 145.5,-190.5"/>
<text text-anchor="middle" x="199" y="-197.5" font-family="Helvetica,sans-Serif" font-size="10.00">Entity::getBaseDMG</text>
</a>
</g>
</g>
<!-- Node1&#45;&gt;Node3 -->
<g id="edge2" class="edge"><title>Node1&#45;&gt;Node3</title>
<path fill="none" stroke="midnightblue" d="M68.0036,-133.7C84.8569,-145.942 115.472,-167.079 144,-181 148.296,-183.096 152.883,-185.075 157.501,-186.907"/>
<polygon fill="midnightblue" stroke="midnightblue" points="156.347,-190.213 166.94,-190.452 158.808,-183.66 156.347,-190.213"/>
</g>
<!-- Node4 -->
<g id="node4" class="node"><title>Node4</title>
<g id="a_node4"><a xlink:href="$class_item.html#a3f52d268bd88e1d81c1b85c5c6e105e6" xlink:title="Gets Additive Bonus Defense of Item.">
<polygon fill="white" stroke="black" points="148,-152.5 148,-171.5 250,-171.5 250,-152.5 148,-152.5"/>
<text text-anchor="middle" x="199" y="-159.5" font-family="Helvetica,sans-Serif" font-size="10.00">Item::getBonusDEF</text>
</a>
</g>
</g>
<!-- Node1&#45;&gt;Node4 -->
<g id="edge3" class="edge"><title>Node1&#45;&gt;Node4</title>
<path fill="none" stroke="midnightblue" d="M91.0849,-133.589C109.63,-138.517 132.426,-144.575 152.199,-149.829"/>
<polygon fill="midnightblue" stroke="midnightblue" points="151.363,-153.228 161.927,-152.414 153.161,-146.463 151.363,-153.228"/>
</g>
<!-- Node5 -->
<g id="node5" class="node"><title>Node5</title>
<g id="a_node5"><a xlink:href="$class_item.html#a08c71af1bcade0be8bb4b64d8b1617d0" xlink:title="Gets Multiplied Bonus Defense of Item.">
<polygon fill="white" stroke="black" points="144,-114.5 144,-133.5 254,-133.5 254,-114.5 144,-114.5"/>
<text text-anchor="middle" x="199" y="-121.5" font-family="Helvetica,sans-Serif" font-size="10.00">Item::getBonusDEFM</text>
</a>
</g>
</g>
<!-- Node1&#45;&gt;Node5 -->
<g id="edge4" class="edge"><title>Node1&#45;&gt;Node5</title>
<path fill="none" stroke="midnightblue" d="M108.248,-124C116.49,-124 125.079,-124 133.536,-124"/>
<polygon fill="midnightblue" stroke="midnightblue" points="133.753,-127.5 143.753,-124 133.753,-120.5 133.753,-127.5"/>
</g>
<!-- Node6 -->
<g id="node6" class="node"><title>Node6</title>
<g id="a_node6"><a xlink:href="$class_entity.html#a2e1e28a69df4f3e85056fd00425373c1" xlink:title="Gets Entity&#39;s HP.">
<polygon fill="white" stroke="black" points="161.5,-76.5 161.5,-95.5 236.5,-95.5 236.5,-76.5 161.5,-76.5"/>
<text text-anchor="middle" x="199" y="-83.5" font-family="Helvetica,sans-Serif" font-size="10.00">Entity::getHP</text>
</a>
</g>
</g>
<!-- Node1&#45;&gt;Node6 -->
<g id="edge5" class="edge"><title>Node1&#45;&gt;Node6</title>
<path fill="none" stroke="midnightblue" d="M91.0849,-114.411C109.63,-109.483 132.426,-103.425 152.199,-98.1709"/>
<polygon fill="midnightblue" stroke="midnightblue" points="153.161,-101.537 161.927,-95.5859 151.363,-94.7716 153.161,-101.537"/>
</g>
<!-- Node7 -->
<g id="node7" class="node"><title>Node7</title>
<g id="a_node7"><a xlink:href="$class_entity.html#a915cd93caa3a2730a58c74c404e0df6d" xlink:title="Gets Entity&#39;s name.">
<polygon fill="white" stroke="black" points="155.5,-38.5 155.5,-57.5 242.5,-57.5 242.5,-38.5 155.5,-38.5"/>
<text text-anchor="middle" x="199" y="-45.5" font-family="Helvetica,sans-Serif" font-size="10.00">Entity::getName</text>
</a>
</g>
</g>
<!-- Node1&#45;&gt;Node7 -->
<g id="edge6" class="edge"><title>Node1&#45;&gt;Node7</title>
<path fill="none" stroke="midnightblue" d="M68.0036,-114.3C84.8569,-102.058 115.472,-80.9208 144,-67 148.296,-64.9039 152.883,-62.9247 157.501,-61.0926"/>
<polygon fill="midnightblue" stroke="midnightblue" points="158.808,-64.3404 166.94,-57.5481 156.347,-57.7873 158.808,-64.3404"/>
</g>
<!-- Node9 -->
<g id="node9" class="node"><title>Node9</title>
<g id="a_node9"><a xlink:href="$class_entity.html#a3b040bb229db233ad6ce5a62b129d3ef" xlink:title="Sets Entity&#39;s HP.">
<polygon fill="white" stroke="black" points="161.5,-0.5 161.5,-19.5 236.5,-19.5 236.5,-0.5 161.5,-0.5"/>
<text text-anchor="middle" x="199" y="-7.5" font-family="Helvetica,sans-Serif" font-size="10.00">Entity::setHP</text>
</a>
</g>
</g>
<!-- Node1&#45;&gt;Node9 -->
<g id="edge8" class="edge"><title>Node1&#45;&gt;Node9</title>
<path fill="none" stroke="midnightblue" d="M61.4649,-114.491C74.7721,-95.5978 107.092,-53.0837 144,-29 146.961,-27.0677 150.142,-25.3055 153.425,-23.7035"/>
<polygon fill="midnightblue" stroke="midnightblue" points="155.074,-26.8032 162.847,-19.6044 152.281,-20.3843 155.074,-26.8032"/>
</g>
<!-- Node8 -->
<g id="node8" class="node"><title>Node8</title>
<g id="a_node8"><a xlink:href="$class_string.html#a9bd764caa857cd20c6d9c720f737982b" xlink:title="Return the content of the String.">
<polygon fill="white" stroke="black" points="290,-38.5 290,-57.5 364,-57.5 364,-38.5 290,-38.5"/>
<text text-anchor="middle" x="327" y="-45.5" font-family="Helvetica,sans-Serif" font-size="10.00">String::getStr</text>
</a>
</g>
</g>
<!-- Node7&#45;&gt;Node8 -->
<g id="edge7" class="edge"><title>Node7&#45;&gt;Node8</title>
<path fill="none" stroke="midnightblue" d="M242.658,-48C254.475,-48 267.361,-48 279.391,-48"/>
<polygon fill="midnightblue" stroke="midnightblue" points="279.693,-51.5001 289.693,-48 279.693,-44.5001 279.693,-51.5001"/>
</g>
</g>
</svg>
