<?xml version="1.0" encoding="UTF-8" standalone="no"?>
<!DOCTYPE svg PUBLIC "-//W3C//DTD SVG 1.1//EN"
 "http://www.w3.org/Graphics/SVG/1.1/DTD/svg11.dtd">
<!-- Generated by graphviz version 2.38.0 (20140413.2041)
 -->
<!-- Title: Entity::getName Pages: 1 -->
<svg width="239pt" height="180pt"
 viewBox="0.00 0.00 239.00 180.00" xmlns="http://www.w3.org/2000/svg" xmlns:xlink="http://www.w3.org/1999/xlink">
<g id="graph0" class="graph" transform="scale(1 1) rotate(0) translate(4 176)">
<title>Entity::getName</title>
<polygon fill="white" stroke="none" points="-4,4 -4,-176 235,-176 235,4 -4,4"/>
<!-- Node1 -->
<g id="node1" class="node"><title>Node1</title>
<g id="a_node1"><a xlink:title="Gets Entity&#39;s name.">
<polygon fill="#bfbfbf" stroke="black" points="144,-76.5 144,-95.5 231,-95.5 231,-76.5 144,-76.5"/>
<text text-anchor="middle" x="187.5" y="-83.5" font-family="Helvetica,sans-Serif" font-size="10.00">Entity::getName</text>
</a>
</g>
</g>
<!-- Node2 -->
<g id="node2" class="node"><title>Node2</title>
<g id="a_node2"><a xlink:href="$class_player.html#ae30e579efad256523585a947932bcf7f" xlink:title="Attack an Enemy.">
<polygon fill="white" stroke="black" points="0,-152.5 0,-171.5 108,-171.5 108,-152.5 0,-152.5"/>
<text text-anchor="middle" x="54" y="-159.5" font-family="Helvetica,sans-Serif" font-size="10.00">Player::attackEnemy</text>
</a>
</g>
</g>
<!-- Node1&#45;&gt;Node2 -->
<g id="edge1" class="edge"><title>Node1&#45;&gt;Node2</title>
<path fill="none" stroke="midnightblue" d="M167.345,-102.304C152.048,-114.714 129.66,-131.555 108,-143 101.173,-146.608 93.5117,-149.798 86.182,-152.485"/>
<polygon fill="midnightblue" stroke="midnightblue" points="169.996,-104.653 175.473,-95.5838 165.536,-99.2587 169.996,-104.653"/>
</g>
<!-- Node3 -->
<g id="node3" class="node"><title>Node3</title>
<g id="a_node3"><a xlink:href="$class_enemy.html#a558ca434ca4938c167580db520d2a7d1" xlink:title="Attack Player without taking Damage from it.">
<polygon fill="white" stroke="black" points="0,-114.5 0,-133.5 108,-133.5 108,-114.5 0,-114.5"/>
<text text-anchor="middle" x="54" y="-121.5" font-family="Helvetica,sans-Serif" font-size="10.00">Enemy::attackPlayer</text>
</a>
</g>
</g>
<!-- Node1&#45;&gt;Node3 -->
<g id="edge2" class="edge"><title>Node1&#45;&gt;Node3</title>
<path fill="none" stroke="midnightblue" d="M143.622,-98.3906C125.614,-103.594 104.99,-109.554 88.1724,-114.414"/>
<polygon fill="midnightblue" stroke="midnightblue" points="144.682,-101.728 153.317,-95.589 142.738,-95.0028 144.682,-101.728"/>
</g>
<!-- Node4 -->
<g id="node4" class="node"><title>Node4</title>
<g id="a_node4"><a xlink:href="$class_player.html#a8eb7206d12e28c347a785530ab1ecf71" xlink:title="Writes out the Player&#39;s info to an output.">
<polygon fill="white" stroke="black" points="2,-76.5 2,-95.5 106,-95.5 106,-76.5 2,-76.5"/>
<text text-anchor="middle" x="54" y="-83.5" font-family="Helvetica,sans-Serif" font-size="10.00">Player::getInfoEntity</text>
</a>
</g>
</g>
<!-- Node1&#45;&gt;Node4 -->
<g id="edge3" class="edge"><title>Node1&#45;&gt;Node4</title>
<path fill="none" stroke="midnightblue" d="M133.739,-86C124.658,-86 115.233,-86 106.194,-86"/>
<polygon fill="midnightblue" stroke="midnightblue" points="133.806,-89.5001 143.806,-86 133.806,-82.5001 133.806,-89.5001"/>
</g>
<!-- Node5 -->
<g id="node5" class="node"><title>Node5</title>
<g id="a_node5"><a xlink:href="$class_enemy.html#a5e801697dc4608bc549ad08f3c584127" xlink:title="Displays the info of an Enemy, dynamically controlable with an InfoPreset.">
<polygon fill="white" stroke="black" points="0.5,-38.5 0.5,-57.5 107.5,-57.5 107.5,-38.5 0.5,-38.5"/>
<text text-anchor="middle" x="54" y="-45.5" font-family="Helvetica,sans-Serif" font-size="10.00">Enemy::getInfoEntity</text>
</a>
</g>
</g>
<!-- Node1&#45;&gt;Node5 -->
<g id="edge4" class="edge"><title>Node1&#45;&gt;Node5</title>
<path fill="none" stroke="midnightblue" d="M143.622,-73.6094C125.614,-68.4055 104.99,-62.4459 88.1724,-57.5859"/>
<polygon fill="midnightblue" stroke="midnightblue" points="142.738,-76.9972 153.317,-76.411 144.682,-70.2724 142.738,-76.9972"/>
</g>
<!-- Node6 -->
<g id="node6" class="node"><title>Node6</title>
<g id="a_node6"><a xlink:href="$class_player.html#abcb7d3223f85a71cc8c69dee6f87f3e4" xlink:title="Healing with an Item.">
<polygon fill="white" stroke="black" points="19,-0.5 19,-19.5 89,-19.5 89,-0.5 19,-0.5"/>
<text text-anchor="middle" x="54" y="-7.5" font-family="Helvetica,sans-Serif" font-size="10.00">Player::Heal</text>
</a>
</g>
</g>
<!-- Node1&#45;&gt;Node6 -->
<g id="edge5" class="edge"><title>Node1&#45;&gt;Node6</title>
<path fill="none" stroke="midnightblue" d="M167.345,-69.6957C152.048,-57.2858 129.66,-40.4455 108,-29 101.173,-25.3922 93.5117,-22.2017 86.182,-19.5146"/>
<polygon fill="midnightblue" stroke="midnightblue" points="165.536,-72.7413 175.473,-76.4162 169.996,-67.3465 165.536,-72.7413"/>
</g>
</g>
</svg>
