<?xml version="1.0" encoding="UTF-8" standalone="no"?>
<!DOCTYPE svg PUBLIC "-//W3C//DTD SVG 1.1//EN"
 "http://www.w3.org/Graphics/SVG/1.1/DTD/svg11.dtd">
<!-- Generated by graphviz version 2.38.0 (20140413.2041)
 -->
<!-- Title: Player::attackEnemy Pages: 1 -->
<svg width="375pt" height="370pt"
 viewBox="0.00 0.00 375.00 370.00" xmlns="http://www.w3.org/2000/svg" xmlns:xlink="http://www.w3.org/1999/xlink">
<g id="graph0" class="graph" transform="scale(1 1) rotate(0) translate(4 366)">
<title>Player::attackEnemy</title>
<polygon fill="white" stroke="none" points="-4,4 -4,-366 371,-366 371,4 -4,4"/>
<!-- Node1 -->
<g id="node1" class="node"><title>Node1</title>
<g id="a_node1"><a xlink:title="Attack an Enemy with a Weapon/Shield.">
<polygon fill="#bfbfbf" stroke="black" points="0,-171.5 0,-190.5 108,-190.5 108,-171.5 0,-171.5"/>
<text text-anchor="middle" x="54" y="-178.5" font-family="Helvetica,sans-Serif" font-size="10.00">Player::attackEnemy</text>
</a>
</g>
</g>
<!-- Node2 -->
<g id="node2" class="node"><title>Node2</title>
<g id="a_node2"><a xlink:href="$class_entity.html#a181a9ed8c2f4b8cbf2c1799808840b98" xlink:title="Gets Entity&#39;s Base Defense.">
<polygon fill="white" stroke="black" points="148.5,-342.5 148.5,-361.5 252.5,-361.5 252.5,-342.5 148.5,-342.5"/>
<text text-anchor="middle" x="200.5" y="-349.5" font-family="Helvetica,sans-Serif" font-size="10.00">Entity::getBaseDEF</text>
</a>
</g>
</g>
<!-- Node1&#45;&gt;Node2 -->
<g id="edge1" class="edge"><title>Node1&#45;&gt;Node2</title>
<path fill="none" stroke="midnightblue" d="M58.0202,-190.781C66.7815,-217.557 94.761,-292.736 144,-333 146.143,-334.753 148.458,-336.348 150.882,-337.798"/>
<polygon fill="midnightblue" stroke="midnightblue" points="149.534,-341.039 160.036,-342.444 152.703,-334.797 149.534,-341.039"/>
</g>
<!-- Node3 -->
<g id="node3" class="node"><title>Node3</title>
<g id="a_node3"><a xlink:href="$class_entity.html#ae28f385cd28512190092c60f4ef03e4b" xlink:title="Gets Entity&#39;s Base Damage.">
<polygon fill="white" stroke="black" points="147,-304.5 147,-323.5 254,-323.5 254,-304.5 147,-304.5"/>
<text text-anchor="middle" x="200.5" y="-311.5" font-family="Helvetica,sans-Serif" font-size="10.00">Entity::getBaseDMG</text>
</a>
</g>
</g>
<!-- Node1&#45;&gt;Node3 -->
<g id="edge2" class="edge"><title>Node1&#45;&gt;Node3</title>
<path fill="none" stroke="midnightblue" d="M60.0412,-190.797C71.7834,-212.674 103.096,-265.867 144,-295 146.696,-296.92 149.602,-298.659 152.621,-300.232"/>
<polygon fill="midnightblue" stroke="midnightblue" points="151.37,-303.508 161.922,-304.466 154.271,-297.137 151.37,-303.508"/>
</g>
<!-- Node4 -->
<g id="node4" class="node"><title>Node4</title>
<g id="a_node4"><a xlink:href="$class_item.html#a3f52d268bd88e1d81c1b85c5c6e105e6" xlink:title="Gets Additive Bonus Defense of Item.">
<polygon fill="white" stroke="black" points="149.5,-266.5 149.5,-285.5 251.5,-285.5 251.5,-266.5 149.5,-266.5"/>
<text text-anchor="middle" x="200.5" y="-273.5" font-family="Helvetica,sans-Serif" font-size="10.00">Item::getBonusDEF</text>
</a>
</g>
</g>
<!-- Node1&#45;&gt;Node4 -->
<g id="edge3" class="edge"><title>Node1&#45;&gt;Node4</title>
<path fill="none" stroke="midnightblue" d="M63.9604,-190.74C79.0643,-206.641 111.171,-238.277 144,-257 147.633,-259.072 151.528,-260.968 155.508,-262.691"/>
<polygon fill="midnightblue" stroke="midnightblue" points="154.279,-265.969 164.865,-266.4 156.859,-259.461 154.279,-265.969"/>
</g>
<!-- Node5 -->
<g id="node5" class="node"><title>Node5</title>
<g id="a_node5"><a xlink:href="$class_item.html#a08c71af1bcade0be8bb4b64d8b1617d0" xlink:title="Gets Multiplied Bonus Defense of Item.">
<polygon fill="white" stroke="black" points="145.5,-228.5 145.5,-247.5 255.5,-247.5 255.5,-228.5 145.5,-228.5"/>
<text text-anchor="middle" x="200.5" y="-235.5" font-family="Helvetica,sans-Serif" font-size="10.00">Item::getBonusDEFM</text>
</a>
</g>
</g>
<!-- Node1&#45;&gt;Node5 -->
<g id="edge4" class="edge"><title>Node1&#45;&gt;Node5</title>
<path fill="none" stroke="midnightblue" d="M76.0399,-190.503C93.9619,-198.471 120.474,-209.965 144,-219 149.288,-221.031 154.899,-223.077 160.442,-225.034"/>
<polygon fill="midnightblue" stroke="midnightblue" points="159.668,-228.47 170.262,-228.441 161.962,-221.857 159.668,-228.47"/>
</g>
<!-- Node6 -->
<g id="node6" class="node"><title>Node6</title>
<g id="a_node6"><a xlink:href="$class_item.html#a9ed44cf1cdb50cbc39ed41d081337729" xlink:title="Gets Additive Bonus Damage of Item.">
<polygon fill="white" stroke="black" points="148,-190.5 148,-209.5 253,-209.5 253,-190.5 148,-190.5"/>
<text text-anchor="middle" x="200.5" y="-197.5" font-family="Helvetica,sans-Serif" font-size="10.00">Item::getBonusDMG</text>
</a>
</g>
</g>
<!-- Node1&#45;&gt;Node6 -->
<g id="edge5" class="edge"><title>Node1&#45;&gt;Node6</title>
<path fill="none" stroke="midnightblue" d="M108.396,-188.021C117.943,-189.276 127.962,-190.594 137.721,-191.877"/>
<polygon fill="midnightblue" stroke="midnightblue" points="137.395,-195.364 147.766,-193.198 138.307,-188.424 137.395,-195.364"/>
</g>
<!-- Node7 -->
<g id="node7" class="node"><title>Node7</title>
<g id="a_node7"><a xlink:href="$class_item.html#a6931ae5d9be963413fd6e4d018eb2138" xlink:title="Gets Multiplied Bonus Damage of Item.">
<polygon fill="white" stroke="black" points="144,-152.5 144,-171.5 257,-171.5 257,-152.5 144,-152.5"/>
<text text-anchor="middle" x="200.5" y="-159.5" font-family="Helvetica,sans-Serif" font-size="10.00">Item::getBonusDMGM</text>
</a>
</g>
</g>
<!-- Node1&#45;&gt;Node7 -->
<g id="edge6" class="edge"><title>Node1&#45;&gt;Node7</title>
<path fill="none" stroke="midnightblue" d="M108.396,-173.979C116.717,-172.885 125.397,-171.744 133.95,-170.619"/>
<polygon fill="midnightblue" stroke="midnightblue" points="134.445,-174.084 143.904,-169.31 133.533,-167.144 134.445,-174.084"/>
</g>
<!-- Node8 -->
<g id="node8" class="node"><title>Node8</title>
<g id="a_node8"><a xlink:href="$class_entity.html#a2e1e28a69df4f3e85056fd00425373c1" xlink:title="Gets Entity&#39;s HP.">
<polygon fill="white" stroke="black" points="163,-114.5 163,-133.5 238,-133.5 238,-114.5 163,-114.5"/>
<text text-anchor="middle" x="200.5" y="-121.5" font-family="Helvetica,sans-Serif" font-size="10.00">Entity::getHP</text>
</a>
</g>
</g>
<!-- Node1&#45;&gt;Node8 -->
<g id="edge7" class="edge"><title>Node1&#45;&gt;Node8</title>
<path fill="none" stroke="midnightblue" d="M76.0399,-171.497C93.9619,-163.529 120.474,-152.035 144,-143 149.288,-140.969 154.899,-138.923 160.442,-136.966"/>
<polygon fill="midnightblue" stroke="midnightblue" points="161.962,-140.143 170.262,-133.559 159.668,-133.53 161.962,-140.143"/>
</g>
<!-- Node9 -->
<g id="node9" class="node"><title>Node9</title>
<g id="a_node9"><a xlink:href="$class_entity.html#a915cd93caa3a2730a58c74c404e0df6d" xlink:title="Gets Entity&#39;s name.">
<polygon fill="white" stroke="black" points="157,-76.5 157,-95.5 244,-95.5 244,-76.5 157,-76.5"/>
<text text-anchor="middle" x="200.5" y="-83.5" font-family="Helvetica,sans-Serif" font-size="10.00">Entity::getName</text>
</a>
</g>
</g>
<!-- Node1&#45;&gt;Node9 -->
<g id="edge8" class="edge"><title>Node1&#45;&gt;Node9</title>
<path fill="none" stroke="midnightblue" d="M63.9604,-171.26C79.0643,-155.359 111.171,-123.723 144,-105 147.633,-102.928 151.528,-101.032 155.508,-99.3089"/>
<polygon fill="midnightblue" stroke="midnightblue" points="156.859,-102.539 164.865,-95.5999 154.279,-96.0311 156.859,-102.539"/>
</g>
<!-- Node11 -->
<g id="node11" class="node"><title>Node11</title>
<g id="a_node11"><a xlink:href="$class_item.html#a32fb1297deede82e47cf3f6409cdbf92" xlink:title="Gets Name.">
<polygon fill="white" stroke="black" points="160.5,-38.5 160.5,-57.5 240.5,-57.5 240.5,-38.5 160.5,-38.5"/>
<text text-anchor="middle" x="200.5" y="-45.5" font-family="Helvetica,sans-Serif" font-size="10.00">Item::getName</text>
</a>
</g>
</g>
<!-- Node1&#45;&gt;Node11 -->
<g id="edge10" class="edge"><title>Node1&#45;&gt;Node11</title>
<path fill="none" stroke="midnightblue" d="M60.0412,-171.203C71.7834,-149.326 103.096,-96.1327 144,-67 146.696,-65.0798 149.602,-63.341 152.621,-61.7683"/>
<polygon fill="midnightblue" stroke="midnightblue" points="154.271,-64.8631 161.922,-57.534 151.37,-58.4923 154.271,-64.8631"/>
</g>
<!-- Node12 -->
<g id="node12" class="node"><title>Node12</title>
<g id="a_node12"><a xlink:href="$class_entity.html#a3b040bb229db233ad6ce5a62b129d3ef" xlink:title="Sets Entity&#39;s HP.">
<polygon fill="white" stroke="black" points="163,-0.5 163,-19.5 238,-19.5 238,-0.5 163,-0.5"/>
<text text-anchor="middle" x="200.5" y="-7.5" font-family="Helvetica,sans-Serif" font-size="10.00">Entity::setHP</text>
</a>
</g>
</g>
<!-- Node1&#45;&gt;Node12 -->
<g id="edge12" class="edge"><title>Node1&#45;&gt;Node12</title>
<path fill="none" stroke="midnightblue" d="M58.0202,-171.219C66.7815,-144.443 94.761,-69.2644 144,-29 146.932,-26.6025 150.183,-24.5006 153.599,-22.6591"/>
<polygon fill="midnightblue" stroke="midnightblue" points="155.3,-25.7293 162.92,-18.3681 152.372,-19.3707 155.3,-25.7293"/>
</g>
<!-- Node10 -->
<g id="node10" class="node"><title>Node10</title>
<g id="a_node10"><a xlink:href="$class_string.html#a9bd764caa857cd20c6d9c720f737982b" xlink:title="Return the content of the String.">
<polygon fill="white" stroke="black" points="293,-57.5 293,-76.5 367,-76.5 367,-57.5 293,-57.5"/>
<text text-anchor="middle" x="330" y="-64.5" font-family="Helvetica,sans-Serif" font-size="10.00">String::getStr</text>
</a>
</g>
</g>
<!-- Node9&#45;&gt;Node10 -->
<g id="edge9" class="edge"><title>Node9&#45;&gt;Node10</title>
<path fill="none" stroke="midnightblue" d="M244.31,-79.6204C256.631,-77.7843 270.126,-75.7733 282.651,-73.9069"/>
<polygon fill="midnightblue" stroke="midnightblue" points="283.522,-77.3159 292.896,-72.3801 282.49,-70.3924 283.522,-77.3159"/>
</g>
<!-- Node11&#45;&gt;Node10 -->
<g id="edge11" class="edge"><title>Node11&#45;&gt;Node10</title>
<path fill="none" stroke="midnightblue" d="M240.795,-53.8557C253.972,-55.8193 268.792,-58.0279 282.469,-60.066"/>
<polygon fill="midnightblue" stroke="midnightblue" points="282.253,-63.5723 292.66,-61.5846 283.285,-56.6488 282.253,-63.5723"/>
</g>
</g>
</svg>
