<?xml version="1.0" encoding="UTF-8" standalone="no"?>
<!DOCTYPE svg PUBLIC "-//W3C//DTD SVG 1.1//EN"
 "http://www.w3.org/Graphics/SVG/1.1/DTD/svg11.dtd">
<!-- Generated by graphviz version 2.38.0 (20140413.2041)
 -->
<!-- Title: Item::getBonusDEFM Pages: 1 -->
<svg width="262pt" height="66pt"
 viewBox="0.00 0.00 262.00 66.00" xmlns="http://www.w3.org/2000/svg" xmlns:xlink="http://www.w3.org/1999/xlink">
<g id="graph0" class="graph" transform="scale(1 1) rotate(0) translate(4 62)">
<title>Item::getBonusDEFM</title>
<polygon fill="white" stroke="none" points="-4,4 -4,-62 258,-62 258,4 -4,4"/>
<!-- Node1 -->
<g id="node1" class="node"><title>Node1</title>
<g id="a_node1"><a xlink:title="Gets Multiplied Bonus Defense of Item.">
<polygon fill="#bfbfbf" stroke="black" points="144,-19.5 144,-38.5 254,-38.5 254,-19.5 144,-19.5"/>
<text text-anchor="middle" x="199" y="-26.5" font-family="Helvetica,sans-Serif" font-size="10.00">Item::getBonusDEFM</text>
</a>
</g>
</g>
<!-- Node2 -->
<g id="node2" class="node"><title>Node2</title>
<g id="a_node2"><a xlink:href="$class_player.html#a45b5020492d5e97efc1b5ff6bc2d1b26" xlink:title="Attack an Enemy with a Weapon/Shield.">
<polygon fill="white" stroke="black" points="0,-38.5 0,-57.5 108,-57.5 108,-38.5 0,-38.5"/>
<text text-anchor="middle" x="54" y="-45.5" font-family="Helvetica,sans-Serif" font-size="10.00">Player::attackEnemy</text>
</a>
</g>
</g>
<!-- Node1&#45;&gt;Node2 -->
<g id="edge1" class="edge"><title>Node1&#45;&gt;Node2</title>
<path fill="none" stroke="midnightblue" d="M133.934,-37.5123C125.329,-38.6555 116.58,-39.8181 108.191,-40.9327"/>
<polygon fill="midnightblue" stroke="midnightblue" points="134.486,-40.9698 143.938,-36.1831 133.564,-34.0308 134.486,-40.9698"/>
</g>
<!-- Node3 -->
<g id="node3" class="node"><title>Node3</title>
<g id="a_node3"><a xlink:href="$class_enemy.html#a558ca434ca4938c167580db520d2a7d1" xlink:title="Attack Player without taking Damage from it.">
<polygon fill="white" stroke="black" points="0,-0.5 0,-19.5 108,-19.5 108,-0.5 0,-0.5"/>
<text text-anchor="middle" x="54" y="-7.5" font-family="Helvetica,sans-Serif" font-size="10.00">Enemy::attackPlayer</text>
</a>
</g>
</g>
<!-- Node1&#45;&gt;Node3 -->
<g id="edge2" class="edge"><title>Node1&#45;&gt;Node3</title>
<path fill="none" stroke="midnightblue" d="M133.934,-20.4877C125.329,-19.3445 116.58,-18.1819 108.191,-17.0673"/>
<polygon fill="midnightblue" stroke="midnightblue" points="133.564,-23.9692 143.938,-21.8169 134.486,-17.0302 133.564,-23.9692"/>
</g>
</g>
</svg>
