<?xml version="1.0" encoding="UTF-8" standalone="no"?>
<!DOCTYPE svg PUBLIC "-//W3C//DTD SVG 1.1//EN"
 "http://www.w3.org/Graphics/SVG/1.1/DTD/svg11.dtd">
<!-- Generated by graphviz version 2.38.0 (20140413.2041)
 -->
<!-- Title: GenericArray::getSize Pages: 1 -->
<svg width="423pt" height="344pt"
 viewBox="0.00 0.00 423.00 344.00" xmlns="http://www.w3.org/2000/svg" xmlns:xlink="http://www.w3.org/1999/xlink">
<g id="graph0" class="graph" transform="scale(1 1) rotate(0) translate(4 340)">
<title>GenericArray::getSize</title>
<polygon fill="white" stroke="none" points="-4,4 -4,-340 419,-340 419,4 -4,4"/>
<!-- Node1 -->
<g id="node1" class="node"><title>Node1</title>
<g id="a_node1"><a xlink:title="Get Size of the Array.">
<polygon fill="#bfbfbf" stroke="black" points="302,-164.5 302,-183.5 415,-183.5 415,-164.5 302,-164.5"/>
<text text-anchor="middle" x="358.5" y="-171.5" font-family="Helvetica,sans-Serif" font-size="10.00">GenericArray::getSize</text>
</a>
</g>
</g>
<!-- Node2 -->
<g id="node2" class="node"><title>Node2</title>
<g id="a_node2"><a xlink:href="$class_storage.html#aa88b5b4b101807e0629c2b2af6476dcf" xlink:title="Adds an Item to the Storage.">
<polygon fill="white" stroke="black" points="167,-316.5 167,-335.5 239,-335.5 239,-316.5 167,-316.5"/>
<text text-anchor="middle" x="203" y="-323.5" font-family="Helvetica,sans-Serif" font-size="10.00">Storage::add</text>
</a>
</g>
</g>
<!-- Node1&#45;&gt;Node2 -->
<g id="edge1" class="edge"><title>Node1&#45;&gt;Node2</title>
<path fill="none" stroke="midnightblue" d="M349.42,-193.077C336.211,-221.991 307.264,-276.738 266,-307 258.102,-312.792 248.411,-316.842 239.059,-319.665"/>
<polygon fill="midnightblue" stroke="midnightblue" points="352.729,-194.248 353.569,-183.687 346.326,-191.42 352.729,-194.248"/>
</g>
<!-- Node3 -->
<g id="node3" class="node"><title>Node3</title>
<g id="a_node3"><a xlink:href="$class_storage.html#aae68a74faf3e272b8ec8d036fe35f52a" xlink:title="Writes out the Storage&#39;s info to the console.">
<polygon fill="white" stroke="black" points="160.5,-278.5 160.5,-297.5 245.5,-297.5 245.5,-278.5 160.5,-278.5"/>
<text text-anchor="middle" x="203" y="-285.5" font-family="Helvetica,sans-Serif" font-size="10.00">Storage::getInfo</text>
</a>
</g>
</g>
<!-- Node1&#45;&gt;Node3 -->
<g id="edge2" class="edge"><title>Node1&#45;&gt;Node3</title>
<path fill="none" stroke="midnightblue" d="M344.867,-191.828C328.854,-213.16 299.294,-248.552 266,-269 259.764,-272.83 252.698,-275.939 245.625,-278.448"/>
<polygon fill="midnightblue" stroke="midnightblue" points="347.785,-193.766 350.872,-183.631 342.138,-189.629 347.785,-193.766"/>
</g>
<!-- Node4 -->
<g id="node4" class="node"><title>Node4</title>
<g id="a_node4"><a xlink:href="$class_storage.html#a296636efc5aad4d35a4ed26bf62a95f5" xlink:title="Writes out the Item&#39;s infos in the Storage to the console.">
<polygon fill="white" stroke="black" points="148.5,-240.5 148.5,-259.5 257.5,-259.5 257.5,-240.5 148.5,-240.5"/>
<text text-anchor="middle" x="203" y="-247.5" font-family="Helvetica,sans-Serif" font-size="10.00">Storage::getInfoItems</text>
</a>
</g>
</g>
<!-- Node1&#45;&gt;Node4 -->
<g id="edge3" class="edge"><title>Node1&#45;&gt;Node4</title>
<path fill="none" stroke="midnightblue" d="M335.908,-189.703C317.914,-202.225 291.239,-219.509 266,-231 258.008,-234.639 249.131,-237.824 240.649,-240.494"/>
<polygon fill="midnightblue" stroke="midnightblue" points="338.33,-192.277 344.473,-183.645 334.288,-186.562 338.33,-192.277"/>
</g>
<!-- Node5 -->
<g id="node5" class="node"><title>Node5</title>
<g id="a_node5"><a xlink:href="$class_storage.html#ae1a84ea6d2f1d50e96c04a8c327fe8ab" xlink:title="Writes out the Item&#39;s infos in the Storage to the console.">
<polygon fill="white" stroke="black" points="143,-202.5 143,-221.5 263,-221.5 263,-202.5 143,-202.5"/>
<text text-anchor="middle" x="203" y="-209.5" font-family="Helvetica,sans-Serif" font-size="10.00">Storage::getInfoItemsAll</text>
</a>
</g>
</g>
<!-- Node1&#45;&gt;Node5 -->
<g id="edge4" class="edge"><title>Node1&#45;&gt;Node5</title>
<path fill="none" stroke="midnightblue" d="M308.865,-186.04C287.42,-191.349 262.577,-197.499 242.456,-202.48"/>
<polygon fill="midnightblue" stroke="midnightblue" points="309.9,-189.39 318.765,-183.589 308.217,-182.595 309.9,-189.39"/>
</g>
<!-- Node7 -->
<g id="node7" class="node"><title>Node7</title>
<g id="a_node7"><a xlink:href="$class_storage.html#a1c4126bb115b13af833f66a49ca19c67" xlink:title="Writes out the Item&#39;s infos in the Storage to the console.">
<polygon fill="white" stroke="black" points="140,-164.5 140,-183.5 266,-183.5 266,-164.5 140,-164.5"/>
<text text-anchor="middle" x="203" y="-171.5" font-family="Helvetica,sans-Serif" font-size="10.00">Storage::getInfoItemsUse</text>
</a>
</g>
</g>
<!-- Node1&#45;&gt;Node7 -->
<g id="edge6" class="edge"><title>Node1&#45;&gt;Node7</title>
<path fill="none" stroke="midnightblue" d="M291.469,-174C283.029,-174 274.413,-174 266.039,-174"/>
<polygon fill="midnightblue" stroke="midnightblue" points="291.649,-177.5 301.649,-174 291.649,-170.5 291.649,-177.5"/>
</g>
<!-- Node8 -->
<g id="node8" class="node"><title>Node8</title>
<g id="a_node8"><a xlink:href="$class_generic_array.html#a8b589d0f85f42ff2a0067fc463d3d7df" xlink:title="Get Number of specific Items in the Array.">
<polygon fill="white" stroke="black" points="152.5,-115 152.5,-145 253.5,-145 253.5,-115 152.5,-115"/>
<text text-anchor="start" x="160.5" y="-133" font-family="Helvetica,sans-Serif" font-size="10.00">GenericArray&lt; Item</text>
<text text-anchor="middle" x="203" y="-122" font-family="Helvetica,sans-Serif" font-size="10.00"> &gt;::getPredNum</text>
</a>
</g>
</g>
<!-- Node1&#45;&gt;Node8 -->
<g id="edge7" class="edge"><title>Node1&#45;&gt;Node8</title>
<path fill="none" stroke="midnightblue" d="M314.363,-161.635C295.458,-156.216 273.161,-149.825 253.575,-144.211"/>
<polygon fill="midnightblue" stroke="midnightblue" points="313.615,-165.062 324.193,-164.453 315.544,-158.333 313.615,-165.062"/>
</g>
<!-- Node9 -->
<g id="node9" class="node"><title>Node9</title>
<g id="a_node9"><a xlink:href="$class_storage.html#aa035fcad7dee4519f3d2e33559723b76" xlink:title="Gets number of Items in the of Storage.">
<polygon fill="white" stroke="black" points="158.5,-76.5 158.5,-95.5 247.5,-95.5 247.5,-76.5 158.5,-76.5"/>
<text text-anchor="middle" x="203" y="-83.5" font-family="Helvetica,sans-Serif" font-size="10.00">Storage::getSize</text>
</a>
</g>
</g>
<!-- Node1&#45;&gt;Node9 -->
<g id="edge8" class="edge"><title>Node1&#45;&gt;Node9</title>
<path fill="none" stroke="midnightblue" d="M339.225,-157.568C321.568,-142.41 293.52,-120.173 266,-106 258.057,-101.909 249.111,-98.4385 240.539,-95.5948"/>
<polygon fill="midnightblue" stroke="midnightblue" points="337.179,-160.427 347.011,-164.373 341.785,-155.157 337.179,-160.427"/>
</g>
<!-- Node10 -->
<g id="node10" class="node"><title>Node10</title>
<g id="a_node10"><a xlink:href="$class_storage.html#add8650b4ab6b8e85d393a2f5a6e60b57" xlink:title="Returns if there are upgrades in the inventory.">
<polygon fill="white" stroke="black" points="141,-38.5 141,-57.5 265,-57.5 265,-38.5 141,-38.5"/>
<text text-anchor="middle" x="203" y="-45.5" font-family="Helvetica,sans-Serif" font-size="10.00">Storage::isThereUpgrade</text>
</a>
</g>
</g>
<!-- Node1&#45;&gt;Node10 -->
<g id="edge9" class="edge"><title>Node1&#45;&gt;Node10</title>
<path fill="none" stroke="midnightblue" d="M346.534,-155.647C331.361,-131.797 301.751,-90.4405 266,-67 260.163,-63.1728 253.516,-60.085 246.795,-57.6028"/>
<polygon fill="midnightblue" stroke="midnightblue" points="343.722,-157.754 351.961,-164.415 349.674,-154.07 343.722,-157.754"/>
</g>
<!-- Node11 -->
<g id="node11" class="node"><title>Node11</title>
<g id="a_node11"><a xlink:href="$class_storage.html#a0210115c208c5cfd5d52e66423f3d723" xlink:title="Removes an Item from the Storage according to its index.">
<polygon fill="white" stroke="black" points="159.5,-0.5 159.5,-19.5 246.5,-19.5 246.5,-0.5 159.5,-0.5"/>
<text text-anchor="middle" x="203" y="-7.5" font-family="Helvetica,sans-Serif" font-size="10.00">Storage::remove</text>
</a>
</g>
</g>
<!-- Node1&#45;&gt;Node11 -->
<g id="edge10" class="edge"><title>Node1&#45;&gt;Node11</title>
<path fill="none" stroke="midnightblue" d="M350.419,-154.528C338.104,-123.384 309.791,-62.4716 266,-29 260.276,-24.6246 253.538,-21.2494 246.653,-18.6477"/>
<polygon fill="midnightblue" stroke="midnightblue" points="347.276,-156.11 354.107,-164.209 353.818,-153.618 347.276,-156.11"/>
</g>
<!-- Node6 -->
<g id="node6" class="node"><title>Node6</title>
<g id="a_node6"><a xlink:href="$class_player.html#a8eb7206d12e28c347a785530ab1ecf71" xlink:title="Writes out the Player&#39;s info to an output.">
<polygon fill="white" stroke="black" points="0,-202.5 0,-221.5 104,-221.5 104,-202.5 0,-202.5"/>
<text text-anchor="middle" x="52" y="-209.5" font-family="Helvetica,sans-Serif" font-size="10.00">Player::getInfoEntity</text>
</a>
</g>
</g>
<!-- Node5&#45;&gt;Node6 -->
<g id="edge5" class="edge"><title>Node5&#45;&gt;Node6</title>
<path fill="none" stroke="midnightblue" d="M132.494,-212C123.039,-212 113.476,-212 104.418,-212"/>
<polygon fill="midnightblue" stroke="midnightblue" points="132.683,-215.5 142.683,-212 132.683,-208.5 132.683,-215.5"/>
</g>
<!-- Node12 -->
<g id="node12" class="node"><title>Node12</title>
<g id="a_node12"><a xlink:href="$class_player.html#abcb7d3223f85a71cc8c69dee6f87f3e4" xlink:title="Healing with an Item.">
<polygon fill="white" stroke="black" points="17,-0.5 17,-19.5 87,-19.5 87,-0.5 17,-0.5"/>
<text text-anchor="middle" x="52" y="-7.5" font-family="Helvetica,sans-Serif" font-size="10.00">Player::Heal</text>
</a>
</g>
</g>
<!-- Node11&#45;&gt;Node12 -->
<g id="edge11" class="edge"><title>Node11&#45;&gt;Node12</title>
<path fill="none" stroke="midnightblue" d="M149.11,-10C128.525,-10 105.531,-10 87.1968,-10"/>
<polygon fill="midnightblue" stroke="midnightblue" points="149.303,-13.5001 159.303,-10 149.303,-6.5001 149.303,-13.5001"/>
</g>
</g>
</svg>
