<?xml version="1.0" encoding="UTF-8" standalone="no"?>
<!DOCTYPE svg PUBLIC "-//W3C//DTD SVG 1.1//EN"
 "http://www.w3.org/Graphics/SVG/1.1/DTD/svg11.dtd">
<!-- Generated by graphviz version 2.38.0 (20140413.2041)
 -->
<!-- Title: Enemy::getInfoEntity Pages: 1 -->
<svg width="368pt" height="180pt"
 viewBox="0.00 0.00 368.00 180.00" xmlns="http://www.w3.org/2000/svg" xmlns:xlink="http://www.w3.org/1999/xlink">
<g id="graph0" class="graph" transform="scale(1 1) rotate(0) translate(4 176)">
<title>Enemy::getInfoEntity</title>
<polygon fill="white" stroke="none" points="-4,4 -4,-176 364,-176 364,4 -4,4"/>
<!-- Node1 -->
<g id="node1" class="node"><title>Node1</title>
<g id="a_node1"><a xlink:title="Displays the info of an Enemy, dynamically controlable with an InfoPreset.">
<polygon fill="#bfbfbf" stroke="black" points="0,-76.5 0,-95.5 107,-95.5 107,-76.5 0,-76.5"/>
<text text-anchor="middle" x="53.5" y="-83.5" font-family="Helvetica,sans-Serif" font-size="10.00">Enemy::getInfoEntity</text>
</a>
</g>
</g>
<!-- Node2 -->
<g id="node2" class="node"><title>Node2</title>
<g id="a_node2"><a xlink:href="$class_entity.html#a181a9ed8c2f4b8cbf2c1799808840b98" xlink:title="Gets Entity&#39;s Base Defense.">
<polygon fill="white" stroke="black" points="144.5,-152.5 144.5,-171.5 248.5,-171.5 248.5,-152.5 144.5,-152.5"/>
<text text-anchor="middle" x="196.5" y="-159.5" font-family="Helvetica,sans-Serif" font-size="10.00">Entity::getBaseDEF</text>
</a>
</g>
</g>
<!-- Node1&#45;&gt;Node2 -->
<g id="edge1" class="edge"><title>Node1&#45;&gt;Node2</title>
<path fill="none" stroke="midnightblue" d="M67.4411,-95.666C84.2108,-107.873 114.666,-128.972 143,-143 147.118,-145.039 151.511,-146.974 155.937,-148.774"/>
<polygon fill="midnightblue" stroke="midnightblue" points="154.991,-152.161 165.581,-152.487 157.506,-145.628 154.991,-152.161"/>
</g>
<!-- Node3 -->
<g id="node3" class="node"><title>Node3</title>
<g id="a_node3"><a xlink:href="$class_entity.html#ae28f385cd28512190092c60f4ef03e4b" xlink:title="Gets Entity&#39;s Base Damage.">
<polygon fill="white" stroke="black" points="143,-114.5 143,-133.5 250,-133.5 250,-114.5 143,-114.5"/>
<text text-anchor="middle" x="196.5" y="-121.5" font-family="Helvetica,sans-Serif" font-size="10.00">Entity::getBaseDMG</text>
</a>
</g>
</g>
<!-- Node1&#45;&gt;Node3 -->
<g id="edge2" class="edge"><title>Node1&#45;&gt;Node3</title>
<path fill="none" stroke="midnightblue" d="M90.0803,-95.589C108.282,-100.494 130.638,-106.52 150.072,-111.757"/>
<polygon fill="midnightblue" stroke="midnightblue" points="149.365,-115.191 159.931,-114.414 151.186,-108.432 149.365,-115.191"/>
</g>
<!-- Node4 -->
<g id="node4" class="node"><title>Node4</title>
<g id="a_node4"><a xlink:href="$class_entity.html#a2e1e28a69df4f3e85056fd00425373c1" xlink:title="Gets Entity&#39;s HP.">
<polygon fill="white" stroke="black" points="159,-76.5 159,-95.5 234,-95.5 234,-76.5 159,-76.5"/>
<text text-anchor="middle" x="196.5" y="-83.5" font-family="Helvetica,sans-Serif" font-size="10.00">Entity::getHP</text>
</a>
</g>
</g>
<!-- Node1&#45;&gt;Node4 -->
<g id="edge3" class="edge"><title>Node1&#45;&gt;Node4</title>
<path fill="none" stroke="midnightblue" d="M107.003,-86C120.595,-86 135.144,-86 148.437,-86"/>
<polygon fill="midnightblue" stroke="midnightblue" points="148.788,-89.5001 158.788,-86 148.787,-82.5001 148.788,-89.5001"/>
</g>
<!-- Node5 -->
<g id="node5" class="node"><title>Node5</title>
<g id="a_node5"><a xlink:href="$class_entity.html#a29a6b9846b3059a41c81858a744d6c33" xlink:title="Gets Entity&#39;s MaxHP.">
<polygon fill="white" stroke="black" points="149.5,-38.5 149.5,-57.5 243.5,-57.5 243.5,-38.5 149.5,-38.5"/>
<text text-anchor="middle" x="196.5" y="-45.5" font-family="Helvetica,sans-Serif" font-size="10.00">Entity::getMaxHP</text>
</a>
</g>
</g>
<!-- Node1&#45;&gt;Node5 -->
<g id="edge4" class="edge"><title>Node1&#45;&gt;Node5</title>
<path fill="none" stroke="midnightblue" d="M90.0803,-76.411C108.282,-71.5056 130.638,-65.4804 150.072,-60.2429"/>
<polygon fill="midnightblue" stroke="midnightblue" points="151.186,-63.5676 159.931,-57.5859 149.365,-56.8088 151.186,-63.5676"/>
</g>
<!-- Node6 -->
<g id="node6" class="node"><title>Node6</title>
<g id="a_node6"><a xlink:href="$class_entity.html#a915cd93caa3a2730a58c74c404e0df6d" xlink:title="Gets Entity&#39;s name.">
<polygon fill="white" stroke="black" points="153,-0.5 153,-19.5 240,-19.5 240,-0.5 153,-0.5"/>
<text text-anchor="middle" x="196.5" y="-7.5" font-family="Helvetica,sans-Serif" font-size="10.00">Entity::getName</text>
</a>
</g>
</g>
<!-- Node1&#45;&gt;Node6 -->
<g id="edge5" class="edge"><title>Node1&#45;&gt;Node6</title>
<path fill="none" stroke="midnightblue" d="M67.4411,-76.334C84.2108,-64.1272 114.666,-43.0282 143,-29 147.118,-26.9612 151.511,-25.0259 155.937,-23.2257"/>
<polygon fill="midnightblue" stroke="midnightblue" points="157.506,-26.372 165.581,-19.513 154.991,-19.8393 157.506,-26.372"/>
</g>
<!-- Node7 -->
<g id="node7" class="node"><title>Node7</title>
<g id="a_node7"><a xlink:href="$class_string.html#a9bd764caa857cd20c6d9c720f737982b" xlink:title="Return the content of the String.">
<polygon fill="white" stroke="black" points="286,-0.5 286,-19.5 360,-19.5 360,-0.5 286,-0.5"/>
<text text-anchor="middle" x="323" y="-7.5" font-family="Helvetica,sans-Serif" font-size="10.00">String::getStr</text>
</a>
</g>
</g>
<!-- Node6&#45;&gt;Node7 -->
<g id="edge6" class="edge"><title>Node6&#45;&gt;Node7</title>
<path fill="none" stroke="midnightblue" d="M240.346,-10C251.655,-10 263.913,-10 275.41,-10"/>
<polygon fill="midnightblue" stroke="midnightblue" points="275.705,-13.5001 285.704,-10 275.704,-6.5001 275.705,-13.5001"/>
</g>
</g>
</svg>
