<?xml version="1.0" encoding="UTF-8" standalone="no"?>
<!DOCTYPE svg PUBLIC "-//W3C//DTD SVG 1.1//EN"
 "http://www.w3.org/Graphics/SVG/1.1/DTD/svg11.dtd">
<!-- Generated by graphviz version 2.38.0 (20140413.2041)
 -->
<!-- Title: Entity::getMaxHP Pages: 1 -->
<svg width="245pt" height="104pt"
 viewBox="0.00 0.00 245.00 104.00" xmlns="http://www.w3.org/2000/svg" xmlns:xlink="http://www.w3.org/1999/xlink">
<g id="graph0" class="graph" transform="scale(1 1) rotate(0) translate(4 100)">
<title>Entity::getMaxHP</title>
<polygon fill="white" stroke="none" points="-4,4 -4,-100 241,-100 241,4 -4,4"/>
<!-- Node1 -->
<g id="node1" class="node"><title>Node1</title>
<g id="a_node1"><a xlink:title="Gets Entity&#39;s MaxHP.">
<polygon fill="#bfbfbf" stroke="black" points="143,-38.5 143,-57.5 237,-57.5 237,-38.5 143,-38.5"/>
<text text-anchor="middle" x="190" y="-45.5" font-family="Helvetica,sans-Serif" font-size="10.00">Entity::getMaxHP</text>
</a>
</g>
</g>
<!-- Node2 -->
<g id="node2" class="node"><title>Node2</title>
<g id="a_node2"><a xlink:href="$class_player.html#a8eb7206d12e28c347a785530ab1ecf71" xlink:title="Writes out the Player&#39;s info to an output.">
<polygon fill="white" stroke="black" points="1.5,-76.5 1.5,-95.5 105.5,-95.5 105.5,-76.5 1.5,-76.5"/>
<text text-anchor="middle" x="53.5" y="-83.5" font-family="Helvetica,sans-Serif" font-size="10.00">Player::getInfoEntity</text>
</a>
</g>
</g>
<!-- Node1&#45;&gt;Node2 -->
<g id="edge1" class="edge"><title>Node1&#45;&gt;Node2</title>
<path fill="none" stroke="midnightblue" d="M145.4,-60.3183C126.92,-65.5393 105.711,-71.5316 88.4292,-76.4141"/>
<polygon fill="midnightblue" stroke="midnightblue" points="146.388,-63.6761 155.06,-57.589 144.485,-56.9398 146.388,-63.6761"/>
</g>
<!-- Node3 -->
<g id="node3" class="node"><title>Node3</title>
<g id="a_node3"><a xlink:href="$class_enemy.html#a5e801697dc4608bc549ad08f3c584127" xlink:title="Displays the info of an Enemy, dynamically controlable with an InfoPreset.">
<polygon fill="white" stroke="black" points="0,-38.5 0,-57.5 107,-57.5 107,-38.5 0,-38.5"/>
<text text-anchor="middle" x="53.5" y="-45.5" font-family="Helvetica,sans-Serif" font-size="10.00">Enemy::getInfoEntity</text>
</a>
</g>
</g>
<!-- Node1&#45;&gt;Node3 -->
<g id="edge2" class="edge"><title>Node1&#45;&gt;Node3</title>
<path fill="none" stroke="midnightblue" d="M132.641,-48C124.26,-48 115.647,-48 107.341,-48"/>
<polygon fill="midnightblue" stroke="midnightblue" points="132.713,-51.5001 142.713,-48 132.713,-44.5001 132.713,-51.5001"/>
</g>
<!-- Node4 -->
<g id="node4" class="node"><title>Node4</title>
<g id="a_node4"><a xlink:href="$class_player.html#abcb7d3223f85a71cc8c69dee6f87f3e4" xlink:title="Healing with an Item.">
<polygon fill="white" stroke="black" points="18.5,-0.5 18.5,-19.5 88.5,-19.5 88.5,-0.5 18.5,-0.5"/>
<text text-anchor="middle" x="53.5" y="-7.5" font-family="Helvetica,sans-Serif" font-size="10.00">Player::Heal</text>
</a>
</g>
</g>
<!-- Node1&#45;&gt;Node4 -->
<g id="edge3" class="edge"><title>Node1&#45;&gt;Node4</title>
<path fill="none" stroke="midnightblue" d="M145.4,-35.6817C126.92,-30.4607 105.711,-24.4684 88.4292,-19.5859"/>
<polygon fill="midnightblue" stroke="midnightblue" points="144.485,-39.0602 155.06,-38.411 146.388,-32.3239 144.485,-39.0602"/>
</g>
</g>
</svg>
