<?xml version="1.0" encoding="UTF-8" standalone="no"?>
<!DOCTYPE svg PUBLIC "-//W3C//DTD SVG 1.1//EN"
 "http://www.w3.org/Graphics/SVG/1.1/DTD/svg11.dtd">
<!-- Generated by graphviz version 2.38.0 (20140413.2041)
 -->
<!-- Title: Player::getInfoEntity Pages: 1 -->
<svg width="417pt" height="332pt"
 viewBox="0.00 0.00 417.00 332.00" xmlns="http://www.w3.org/2000/svg" xmlns:xlink="http://www.w3.org/1999/xlink">
<g id="graph0" class="graph" transform="scale(1 1) rotate(0) translate(4 328)">
<title>Player::getInfoEntity</title>
<polygon fill="white" stroke="none" points="-4,4 -4,-328 413,-328 413,4 -4,4"/>
<!-- Node1 -->
<g id="node1" class="node"><title>Node1</title>
<g id="a_node1"><a xlink:title="Writes out the Player&#39;s info to an output.">
<polygon fill="#bfbfbf" stroke="black" points="0,-152.5 0,-171.5 104,-171.5 104,-152.5 0,-152.5"/>
<text text-anchor="middle" x="52" y="-159.5" font-family="Helvetica,sans-Serif" font-size="10.00">Player::getInfoEntity</text>
</a>
</g>
</g>
<!-- Node2 -->
<g id="node2" class="node"><title>Node2</title>
<g id="a_node2"><a xlink:href="class_entity.html#a181a9ed8c2f4b8cbf2c1799808840b98" target="_top" xlink:title="Gets Entity&#39;s Base Defense.">
<polygon fill="white" stroke="black" points="148,-304.5 148,-323.5 252,-323.5 252,-304.5 148,-304.5"/>
<text text-anchor="middle" x="200" y="-311.5" font-family="Helvetica,sans-Serif" font-size="10.00">Entity::getBaseDEF</text>
</a>
</g>
</g>
<!-- Node1&#45;&gt;Node2 -->
<g id="edge1" class="edge"><title>Node1&#45;&gt;Node2</title>
<path fill="none" stroke="midnightblue" d="M56.6278,-171.648C66.291,-196.047 95.0238,-260.7 140,-295 142.445,-296.865 145.08,-298.55 147.831,-300.073"/>
<polygon fill="midnightblue" stroke="midnightblue" points="146.392,-303.264 156.926,-304.402 149.401,-296.944 146.392,-303.264"/>
</g>
<!-- Node3 -->
<g id="node3" class="node"><title>Node3</title>
<g id="a_node3"><a xlink:href="class_entity.html#ae28f385cd28512190092c60f4ef03e4b" target="_top" xlink:title="Gets Entity&#39;s Base Damage.">
<polygon fill="white" stroke="black" points="146.5,-266.5 146.5,-285.5 253.5,-285.5 253.5,-266.5 146.5,-266.5"/>
<text text-anchor="middle" x="200" y="-273.5" font-family="Helvetica,sans-Serif" font-size="10.00">Entity::getBaseDMG</text>
</a>
</g>
</g>
<!-- Node1&#45;&gt;Node3 -->
<g id="edge2" class="edge"><title>Node1&#45;&gt;Node3</title>
<path fill="none" stroke="midnightblue" d="M59.2128,-171.6C72.029,-190.657 103.295,-233.451 140,-257 143.176,-259.037 146.588,-260.873 150.113,-262.524"/>
<polygon fill="midnightblue" stroke="midnightblue" points="149.044,-265.87 159.621,-266.475 151.73,-259.406 149.044,-265.87"/>
</g>
<!-- Node4 -->
<g id="node4" class="node"><title>Node4</title>
<g id="a_node4"><a xlink:href="class_player.html#ae75067ad3412686357d94ee1dd8d45b8" target="_top" xlink:title="Gets Player&#39;s amount of Gold.">
<polygon fill="white" stroke="black" points="158,-228.5 158,-247.5 242,-247.5 242,-228.5 158,-228.5"/>
<text text-anchor="middle" x="200" y="-235.5" font-family="Helvetica,sans-Serif" font-size="10.00">Player::getGold</text>
</a>
</g>
</g>
<!-- Node1&#45;&gt;Node4 -->
<g id="edge3" class="edge"><title>Node1&#45;&gt;Node4</title>
<path fill="none" stroke="midnightblue" d="M65.3344,-171.628C81.647,-183.989 111.651,-205.453 140,-219 144.615,-221.205 149.55,-223.247 154.528,-225.109"/>
<polygon fill="midnightblue" stroke="midnightblue" points="153.483,-228.452 164.078,-228.466 155.805,-221.848 153.483,-228.452"/>
</g>
<!-- Node5 -->
<g id="node5" class="node"><title>Node5</title>
<g id="a_node5"><a xlink:href="class_entity.html#a2e1e28a69df4f3e85056fd00425373c1" target="_top" xlink:title="Gets Entity&#39;s HP.">
<polygon fill="white" stroke="black" points="162.5,-190.5 162.5,-209.5 237.5,-209.5 237.5,-190.5 162.5,-190.5"/>
<text text-anchor="middle" x="200" y="-197.5" font-family="Helvetica,sans-Serif" font-size="10.00">Entity::getHP</text>
</a>
</g>
</g>
<!-- Node1&#45;&gt;Node5 -->
<g id="edge4" class="edge"><title>Node1&#45;&gt;Node5</title>
<path fill="none" stroke="midnightblue" d="M89.842,-171.589C108.848,-176.536 132.229,-182.621 152.469,-187.889"/>
<polygon fill="midnightblue" stroke="midnightblue" points="151.864,-191.348 162.423,-190.48 153.627,-184.574 151.864,-191.348"/>
</g>
<!-- Node6 -->
<g id="node6" class="node"><title>Node6</title>
<g id="a_node6"><a xlink:href="class_storage.html#ae1a84ea6d2f1d50e96c04a8c327fe8ab" target="_top" xlink:title="Writes out the Item&#39;s infos in the Storage to the console.">
<polygon fill="white" stroke="black" points="140,-152.5 140,-171.5 260,-171.5 260,-152.5 140,-152.5"/>
<text text-anchor="middle" x="200" y="-159.5" font-family="Helvetica,sans-Serif" font-size="10.00">Storage::getInfoItemsAll</text>
</a>
</g>
</g>
<!-- Node1&#45;&gt;Node6 -->
<g id="edge5" class="edge"><title>Node1&#45;&gt;Node6</title>
<path fill="none" stroke="midnightblue" d="M104.064,-162C112.397,-162 121.151,-162 129.833,-162"/>
<polygon fill="midnightblue" stroke="midnightblue" points="129.961,-165.5 139.961,-162 129.961,-158.5 129.961,-165.5"/>
</g>
<!-- Node8 -->
<g id="node8" class="node"><title>Node8</title>
<g id="a_node8"><a xlink:href="class_entity.html#a29a6b9846b3059a41c81858a744d6c33" target="_top" xlink:title="Gets Entity&#39;s MaxHP.">
<polygon fill="white" stroke="black" points="153,-114.5 153,-133.5 247,-133.5 247,-114.5 153,-114.5"/>
<text text-anchor="middle" x="200" y="-121.5" font-family="Helvetica,sans-Serif" font-size="10.00">Entity::getMaxHP</text>
</a>
</g>
</g>
<!-- Node1&#45;&gt;Node8 -->
<g id="edge7" class="edge"><title>Node1&#45;&gt;Node8</title>
<path fill="none" stroke="midnightblue" d="M89.842,-152.411C108.848,-147.464 132.229,-141.379 152.469,-136.111"/>
<polygon fill="midnightblue" stroke="midnightblue" points="153.627,-139.426 162.423,-133.52 151.864,-132.652 153.627,-139.426"/>
</g>
<!-- Node9 -->
<g id="node9" class="node"><title>Node9</title>
<g id="a_node9"><a xlink:href="class_entity.html#a915cd93caa3a2730a58c74c404e0df6d" target="_top" xlink:title="Gets Entity&#39;s name.">
<polygon fill="white" stroke="black" points="156.5,-76.5 156.5,-95.5 243.5,-95.5 243.5,-76.5 156.5,-76.5"/>
<text text-anchor="middle" x="200" y="-83.5" font-family="Helvetica,sans-Serif" font-size="10.00">Entity::getName</text>
</a>
</g>
</g>
<!-- Node1&#45;&gt;Node9 -->
<g id="edge8" class="edge"><title>Node1&#45;&gt;Node9</title>
<path fill="none" stroke="midnightblue" d="M65.3344,-152.372C81.647,-140.011 111.651,-118.547 140,-105 144.615,-102.795 149.55,-100.753 154.528,-98.891"/>
<polygon fill="midnightblue" stroke="midnightblue" points="155.805,-102.152 164.078,-95.5344 153.483,-95.5482 155.805,-102.152"/>
</g>
<!-- Node11 -->
<g id="node11" class="node"><title>Node11</title>
<g id="a_node11"><a xlink:href="class_storage.html#a3aa4b83a48ac183c3249ca0cbff8a33a" target="_top" xlink:title="Gets Name.">
<polygon fill="white" stroke="black" points="152.5,-38.5 152.5,-57.5 247.5,-57.5 247.5,-38.5 152.5,-38.5"/>
<text text-anchor="middle" x="200" y="-45.5" font-family="Helvetica,sans-Serif" font-size="10.00">Storage::getName</text>
</a>
</g>
</g>
<!-- Node1&#45;&gt;Node11 -->
<g id="edge10" class="edge"><title>Node1&#45;&gt;Node11</title>
<path fill="none" stroke="midnightblue" d="M59.2128,-152.4C72.029,-133.343 103.295,-90.5495 140,-67 143.176,-64.9625 146.588,-63.1267 150.113,-61.4756"/>
<polygon fill="midnightblue" stroke="midnightblue" points="151.73,-64.5941 159.621,-57.5247 149.044,-58.13 151.73,-64.5941"/>
</g>
<!-- Node12 -->
<g id="node12" class="node"><title>Node12</title>
<g id="a_node12"><a xlink:href="class_player.html#af5869694206295777e8f6c104c9165cb" target="_top" xlink:title="Gets Player&#39;s type of Storage.">
<polygon fill="white" stroke="black" points="140.5,-0.5 140.5,-19.5 259.5,-19.5 259.5,-0.5 140.5,-0.5"/>
<text text-anchor="middle" x="200" y="-7.5" font-family="Helvetica,sans-Serif" font-size="10.00">Player::getStorageType</text>
</a>
</g>
</g>
<!-- Node1&#45;&gt;Node12 -->
<g id="edge12" class="edge"><title>Node1&#45;&gt;Node12</title>
<path fill="none" stroke="midnightblue" d="M56.6278,-152.352C66.291,-127.953 95.0238,-63.3 140,-29 142.445,-27.1351 145.08,-25.4498 147.831,-23.9272"/>
<polygon fill="midnightblue" stroke="midnightblue" points="149.401,-27.0563 156.926,-19.5977 146.392,-20.7359 149.401,-27.0563"/>
</g>
<!-- Node7 -->
<g id="node7" class="node"><title>Node7</title>
<g id="a_node7"><a xlink:href="class_generic_array.html#a5dbfcd8d8b33fe3806650d7aa3e1ca88" target="_top" xlink:title="Get Size of the Array.">
<polygon fill="white" stroke="black" points="296,-152.5 296,-171.5 409,-171.5 409,-152.5 296,-152.5"/>
<text text-anchor="middle" x="352.5" y="-159.5" font-family="Helvetica,sans-Serif" font-size="10.00">GenericArray::getSize</text>
</a>
</g>
</g>
<!-- Node6&#45;&gt;Node7 -->
<g id="edge6" class="edge"><title>Node6&#45;&gt;Node7</title>
<path fill="none" stroke="midnightblue" d="M260.05,-162C268.363,-162 276.954,-162 285.389,-162"/>
<polygon fill="midnightblue" stroke="midnightblue" points="285.571,-165.5 295.571,-162 285.571,-158.5 285.571,-165.5"/>
</g>
<!-- Node10 -->
<g id="node10" class="node"><title>Node10</title>
<g id="a_node10"><a xlink:href="class_string.html#a9bd764caa857cd20c6d9c720f737982b" target="_top" xlink:title="Return the content of the String.">
<polygon fill="white" stroke="black" points="315.5,-57.5 315.5,-76.5 389.5,-76.5 389.5,-57.5 315.5,-57.5"/>
<text text-anchor="middle" x="352.5" y="-64.5" font-family="Helvetica,sans-Serif" font-size="10.00">String::getStr</text>
</a>
</g>
</g>
<!-- Node9&#45;&gt;Node10 -->
<g id="edge9" class="edge"><title>Node9&#45;&gt;Node10</title>
<path fill="none" stroke="midnightblue" d="M243.725,-80.6062C262.966,-78.1771 285.72,-75.3045 305.35,-72.8262"/>
<polygon fill="midnightblue" stroke="midnightblue" points="305.813,-76.2957 315.296,-71.5706 304.936,-69.3508 305.813,-76.2957"/>
</g>
<!-- Node11&#45;&gt;Node10 -->
<g id="edge11" class="edge"><title>Node11&#45;&gt;Node10</title>
<path fill="none" stroke="midnightblue" d="M247.794,-53.9076C266.056,-56.2131 286.941,-58.8496 305.159,-61.1496"/>
<polygon fill="midnightblue" stroke="midnightblue" points="304.894,-64.6439 315.254,-62.4241 305.771,-57.6991 304.894,-64.6439"/>
</g>
</g>
</svg>
