<?xml version="1.0" encoding="UTF-8" standalone="no"?>
<!DOCTYPE svg PUBLIC "-//W3C//DTD SVG 1.1//EN"
 "http://www.w3.org/Graphics/SVG/1.1/DTD/svg11.dtd">
<!-- Generated by graphviz version 2.38.0 (20140413.2041)
 -->
<!-- Title: Player::attackEnemy Pages: 1 -->
<svg width="369pt" height="180pt"
 viewBox="0.00 0.00 369.00 180.00" xmlns="http://www.w3.org/2000/svg" xmlns:xlink="http://www.w3.org/1999/xlink">
<g id="graph0" class="graph" transform="scale(1 1) rotate(0) translate(4 176)">
<title>Player::attackEnemy</title>
<polygon fill="white" stroke="none" points="-4,4 -4,-176 365,-176 365,4 -4,4"/>
<!-- Node1 -->
<g id="node1" class="node"><title>Node1</title>
<g id="a_node1"><a xlink:title="Attack an Enemy.">
<polygon fill="#bfbfbf" stroke="black" points="0,-76.5 0,-95.5 108,-95.5 108,-76.5 0,-76.5"/>
<text text-anchor="middle" x="54" y="-83.5" font-family="Helvetica,sans-Serif" font-size="10.00">Player::attackEnemy</text>
</a>
</g>
</g>
<!-- Node2 -->
<g id="node2" class="node"><title>Node2</title>
<g id="a_node2"><a xlink:href="class_entity.html#a181a9ed8c2f4b8cbf2c1799808840b98" target="_top" xlink:title="Gets Entity&#39;s Base Defense.">
<polygon fill="white" stroke="black" points="145.5,-152.5 145.5,-171.5 249.5,-171.5 249.5,-152.5 145.5,-152.5"/>
<text text-anchor="middle" x="197.5" y="-159.5" font-family="Helvetica,sans-Serif" font-size="10.00">Entity::getBaseDEF</text>
</a>
</g>
</g>
<!-- Node1&#45;&gt;Node2 -->
<g id="edge1" class="edge"><title>Node1&#45;&gt;Node2</title>
<path fill="none" stroke="midnightblue" d="M68.0233,-95.6599C84.8973,-107.86 115.534,-128.952 144,-143 148.121,-145.034 152.516,-146.966 156.942,-148.764"/>
<polygon fill="midnightblue" stroke="midnightblue" points="155.997,-152.15 166.587,-152.474 158.511,-145.617 155.997,-152.15"/>
</g>
<!-- Node3 -->
<g id="node3" class="node"><title>Node3</title>
<g id="a_node3"><a xlink:href="class_entity.html#ae28f385cd28512190092c60f4ef03e4b" target="_top" xlink:title="Gets Entity&#39;s Base Damage.">
<polygon fill="white" stroke="black" points="144,-114.5 144,-133.5 251,-133.5 251,-114.5 144,-114.5"/>
<text text-anchor="middle" x="197.5" y="-121.5" font-family="Helvetica,sans-Serif" font-size="10.00">Entity::getBaseDMG</text>
</a>
</g>
</g>
<!-- Node1&#45;&gt;Node3 -->
<g id="edge2" class="edge"><title>Node1&#45;&gt;Node3</title>
<path fill="none" stroke="midnightblue" d="M90.7064,-95.589C108.973,-100.494 131.408,-106.52 150.911,-111.757"/>
<polygon fill="midnightblue" stroke="midnightblue" points="150.239,-115.201 160.805,-114.414 152.055,-108.44 150.239,-115.201"/>
</g>
<!-- Node4 -->
<g id="node4" class="node"><title>Node4</title>
<g id="a_node4"><a xlink:href="class_entity.html#a2e1e28a69df4f3e85056fd00425373c1" target="_top" xlink:title="Gets Entity&#39;s HP.">
<polygon fill="white" stroke="black" points="160,-76.5 160,-95.5 235,-95.5 235,-76.5 160,-76.5"/>
<text text-anchor="middle" x="197.5" y="-83.5" font-family="Helvetica,sans-Serif" font-size="10.00">Entity::getHP</text>
</a>
</g>
</g>
<!-- Node1&#45;&gt;Node4 -->
<g id="edge3" class="edge"><title>Node1&#45;&gt;Node4</title>
<path fill="none" stroke="midnightblue" d="M108.092,-86C121.705,-86 136.25,-86 149.53,-86"/>
<polygon fill="midnightblue" stroke="midnightblue" points="149.868,-89.5001 159.868,-86 149.868,-82.5001 149.868,-89.5001"/>
</g>
<!-- Node5 -->
<g id="node5" class="node"><title>Node5</title>
<g id="a_node5"><a xlink:href="class_entity.html#a915cd93caa3a2730a58c74c404e0df6d" target="_top" xlink:title="Gets Entity&#39;s name.">
<polygon fill="white" stroke="black" points="154,-38.5 154,-57.5 241,-57.5 241,-38.5 154,-38.5"/>
<text text-anchor="middle" x="197.5" y="-45.5" font-family="Helvetica,sans-Serif" font-size="10.00">Entity::getName</text>
</a>
</g>
</g>
<!-- Node1&#45;&gt;Node5 -->
<g id="edge4" class="edge"><title>Node1&#45;&gt;Node5</title>
<path fill="none" stroke="midnightblue" d="M90.7064,-76.411C108.973,-71.5056 131.408,-65.4804 150.911,-60.2429"/>
<polygon fill="midnightblue" stroke="midnightblue" points="152.055,-63.5599 160.805,-57.5859 150.239,-56.7994 152.055,-63.5599"/>
</g>
<!-- Node7 -->
<g id="node7" class="node"><title>Node7</title>
<g id="a_node7"><a xlink:href="class_entity.html#a3b040bb229db233ad6ce5a62b129d3ef" target="_top" xlink:title="Sets Entity&#39;s HP.">
<polygon fill="white" stroke="black" points="160,-0.5 160,-19.5 235,-19.5 235,-0.5 160,-0.5"/>
<text text-anchor="middle" x="197.5" y="-7.5" font-family="Helvetica,sans-Serif" font-size="10.00">Entity::setHP</text>
</a>
</g>
</g>
<!-- Node1&#45;&gt;Node7 -->
<g id="edge6" class="edge"><title>Node1&#45;&gt;Node7</title>
<path fill="none" stroke="midnightblue" d="M68.0233,-76.3401C84.8973,-64.1399 115.534,-43.0478 144,-29 148.121,-26.9664 152.516,-25.0345 156.942,-23.2362"/>
<polygon fill="midnightblue" stroke="midnightblue" points="158.511,-26.3828 166.587,-19.5256 155.997,-19.8495 158.511,-26.3828"/>
</g>
<!-- Node6 -->
<g id="node6" class="node"><title>Node6</title>
<g id="a_node6"><a xlink:href="class_string.html#a9bd764caa857cd20c6d9c720f737982b" target="_top" xlink:title="Return the content of the String.">
<polygon fill="white" stroke="black" points="287,-38.5 287,-57.5 361,-57.5 361,-38.5 287,-38.5"/>
<text text-anchor="middle" x="324" y="-45.5" font-family="Helvetica,sans-Serif" font-size="10.00">String::getStr</text>
</a>
</g>
</g>
<!-- Node5&#45;&gt;Node6 -->
<g id="edge5" class="edge"><title>Node5&#45;&gt;Node6</title>
<path fill="none" stroke="midnightblue" d="M241.346,-48C252.655,-48 264.913,-48 276.41,-48"/>
<polygon fill="midnightblue" stroke="midnightblue" points="276.705,-51.5001 286.704,-48 276.704,-44.5001 276.705,-51.5001"/>
</g>
</g>
</svg>
