<?xml version="1.0" encoding="UTF-8" standalone="no"?>
<!DOCTYPE svg PUBLIC "-//W3C//DTD SVG 1.1//EN"
 "http://www.w3.org/Graphics/SVG/1.1/DTD/svg11.dtd">
<!-- Generated by graphviz version 2.38.0 (20140413.2041)
 -->
<!-- Title: Storage::remove Pages: 1 -->
<svg width="244pt" height="66pt"
 viewBox="0.00 0.00 244.00 66.00" xmlns="http://www.w3.org/2000/svg" xmlns:xlink="http://www.w3.org/1999/xlink">
<g id="graph0" class="graph" transform="scale(1 1) rotate(0) translate(4 62)">
<title>Storage::remove</title>
<polygon fill="white" stroke="none" points="-4,4 -4,-62 240,-62 240,4 -4,4"/>
<!-- Node1 -->
<g id="node1" class="node"><title>Node1</title>
<g id="a_node1"><a xlink:title="Removes an Item from the Storage according to its index.">
<polygon fill="#bfbfbf" stroke="black" points="0,-19.5 0,-38.5 87,-38.5 87,-19.5 0,-19.5"/>
<text text-anchor="middle" x="43.5" y="-26.5" font-family="Helvetica,sans-Serif" font-size="10.00">Storage::remove</text>
</a>
</g>
</g>
<!-- Node2 -->
<g id="node2" class="node"><title>Node2</title>
<g id="a_node2"><a xlink:href="class_generic_array.html#a5dbfcd8d8b33fe3806650d7aa3e1ca88" target="_top" xlink:title="Get Size of the Array.">
<polygon fill="white" stroke="black" points="123,-38.5 123,-57.5 236,-57.5 236,-38.5 123,-38.5"/>
<text text-anchor="middle" x="179.5" y="-45.5" font-family="Helvetica,sans-Serif" font-size="10.00">GenericArray::getSize</text>
</a>
</g>
</g>
<!-- Node1&#45;&gt;Node2 -->
<g id="edge1" class="edge"><title>Node1&#45;&gt;Node2</title>
<path fill="none" stroke="midnightblue" d="M87.2669,-35.064C95.4145,-36.2192 104.115,-37.4528 112.786,-38.6824"/>
<polygon fill="midnightblue" stroke="midnightblue" points="112.525,-42.1803 122.918,-40.1189 113.508,-35.2497 112.525,-42.1803"/>
</g>
<!-- Node3 -->
<g id="node3" class="node"><title>Node3</title>
<g id="a_node3"><a xlink:href="class_generic_array.html#ac934ab0bd415faae866e173bde54c564" target="_top" xlink:title="Removes an Element from the Array.">
<polygon fill="white" stroke="black" points="124.5,-0.5 124.5,-19.5 234.5,-19.5 234.5,-0.5 124.5,-0.5"/>
<text text-anchor="middle" x="179.5" y="-7.5" font-family="Helvetica,sans-Serif" font-size="10.00">GenericArray::remove</text>
</a>
</g>
</g>
<!-- Node1&#45;&gt;Node3 -->
<g id="edge2" class="edge"><title>Node1&#45;&gt;Node3</title>
<path fill="none" stroke="midnightblue" d="M87.2669,-22.936C95.9291,-21.7078 105.216,-20.391 114.429,-19.0847"/>
<polygon fill="midnightblue" stroke="midnightblue" points="114.954,-22.5453 124.364,-17.676 113.971,-15.6147 114.954,-22.5453"/>
</g>
</g>
</svg>
