<?xml version="1.0" encoding="UTF-8" standalone="no"?>
<!DOCTYPE svg PUBLIC "-//W3C//DTD SVG 1.1//EN"
 "http://www.w3.org/Graphics/SVG/1.1/DTD/svg11.dtd">
<!-- Generated by graphviz version 2.38.0 (20140413.2041)
 -->
<!-- Title: InfoPreset Pages: 1 -->
<svg width="89pt" height="380pt"
 viewBox="0.00 0.00 89.00 380.00" xmlns="http://www.w3.org/2000/svg" xmlns:xlink="http://www.w3.org/1999/xlink">
<g id="graph0" class="graph" transform="scale(1 1) rotate(0) translate(4 376)">
<title>InfoPreset</title>
<polygon fill="white" stroke="none" points="-4,4 -4,-376 85,-376 85,4 -4,4"/>
<!-- Node1 -->
<g id="node1" class="node"><title>Node1</title>
<g id="a_node1"><a xlink:title="A preset tool for displaying dynamic information about anything.">
<polygon fill="#bfbfbf" stroke="black" points="0,-0.5 0,-156.5 81,-156.5 81,-0.5 0,-0.5"/>
<text text-anchor="middle" x="40.5" y="-144.5" font-family="Helvetica,sans-Serif" font-size="10.00">InfoPreset</text>
<polyline fill="none" stroke="black" points="0,-137.5 81,-137.5 "/>
<text text-anchor="start" x="8" y="-125.5" font-family="Helvetica,sans-Serif" font-size="10.00">+ Name</text>
<text text-anchor="start" x="8" y="-114.5" font-family="Helvetica,sans-Serif" font-size="10.00">+ HP</text>
<text text-anchor="start" x="8" y="-103.5" font-family="Helvetica,sans-Serif" font-size="10.00">+ BaseDMG</text>
<text text-anchor="start" x="8" y="-92.5" font-family="Helvetica,sans-Serif" font-size="10.00">+ BaseDEF</text>
<text text-anchor="start" x="8" y="-81.5" font-family="Helvetica,sans-Serif" font-size="10.00">+ DisplayNum</text>
<text text-anchor="start" x="8" y="-70.5" font-family="Helvetica,sans-Serif" font-size="10.00">+ Gold</text>
<text text-anchor="start" x="8" y="-59.5" font-family="Helvetica,sans-Serif" font-size="10.00">+ Storage</text>
<text text-anchor="start" x="8" y="-48.5" font-family="Helvetica,sans-Serif" font-size="10.00">+ Items</text>
<text text-anchor="start" x="8" y="-37.5" font-family="Helvetica,sans-Serif" font-size="10.00">+ Num</text>
<polyline fill="none" stroke="black" points="0,-30.5 81,-30.5 "/>
<text text-anchor="start" x="8" y="-18.5" font-family="Helvetica,sans-Serif" font-size="10.00">+ InfoPreset()</text>
<text text-anchor="start" x="8" y="-7.5" font-family="Helvetica,sans-Serif" font-size="10.00">+ ~InfoPreset()</text>
</a>
</g>
</g>
<!-- Node2 -->
<g id="node2" class="node"><title>Node2</title>
<g id="a_node2"><a xlink:href="class_string.html" target="_top" xlink:title="Seperate String class, because STL are not allowed...">
<polygon fill="white" stroke="black" points="1,-204.5 1,-371.5 80,-371.5 80,-204.5 1,-204.5"/>
<text text-anchor="middle" x="40.5" y="-359.5" font-family="Helvetica,sans-Serif" font-size="10.00">String</text>
<polyline fill="none" stroke="black" points="1,-352.5 80,-352.5 "/>
<text text-anchor="middle" x="40.5" y="-340.5" font-family="Helvetica,sans-Serif" font-size="10.00"> </text>
<polyline fill="none" stroke="black" points="1,-333.5 80,-333.5 "/>
<text text-anchor="start" x="9" y="-321.5" font-family="Helvetica,sans-Serif" font-size="10.00">+ String()</text>
<text text-anchor="start" x="9" y="-310.5" font-family="Helvetica,sans-Serif" font-size="10.00">+ String()</text>
<text text-anchor="start" x="9" y="-299.5" font-family="Helvetica,sans-Serif" font-size="10.00">+ String()</text>
<text text-anchor="start" x="9" y="-288.5" font-family="Helvetica,sans-Serif" font-size="10.00">+ ~String()</text>
<text text-anchor="start" x="9" y="-277.5" font-family="Helvetica,sans-Serif" font-size="10.00">+ getStr()</text>
<text text-anchor="start" x="9" y="-266.5" font-family="Helvetica,sans-Serif" font-size="10.00">+ getSize()</text>
<text text-anchor="start" x="9" y="-255.5" font-family="Helvetica,sans-Serif" font-size="10.00">+ operator=()</text>
<text text-anchor="start" x="9" y="-244.5" font-family="Helvetica,sans-Serif" font-size="10.00">+ operator=()</text>
<text text-anchor="start" x="9" y="-233.5" font-family="Helvetica,sans-Serif" font-size="10.00">+ operator+=()</text>
<text text-anchor="start" x="9" y="-222.5" font-family="Helvetica,sans-Serif" font-size="10.00">+ operator+()</text>
<text text-anchor="start" x="9" y="-211.5" font-family="Helvetica,sans-Serif" font-size="10.00">+ operator+()</text>
</a>
</g>
</g>
<!-- Node2&#45;&gt;Node1 -->
<g id="edge1" class="edge"><title>Node2&#45;&gt;Node1</title>
<path fill="none" stroke="#404040" d="M40.5,-204.394C40.5,-192.735 40.5,-180.703 40.5,-168.923"/>
<polygon fill="none" stroke="#404040" points="40.5001,-168.764 36.5,-162.764 40.5,-156.764 44.5,-162.764 40.5001,-168.764"/>
<text text-anchor="middle" x="53" y="-178" font-family="Helvetica,sans-Serif" font-size="10.00"> +Pre</text>
</g>
</g>
</svg>
