<?xml version="1.0" encoding="UTF-8" standalone="no"?>
<!DOCTYPE svg PUBLIC "-//W3C//DTD SVG 1.1//EN"
 "http://www.w3.org/Graphics/SVG/1.1/DTD/svg11.dtd">
<!-- Generated by graphviz version 2.38.0 (20140413.2041)
 -->
<!-- Title: Entity::getBaseDMG Pages: 1 -->
<svg width="259pt" height="142pt"
 viewBox="0.00 0.00 259.00 142.00" xmlns="http://www.w3.org/2000/svg" xmlns:xlink="http://www.w3.org/1999/xlink">
<g id="graph0" class="graph" transform="scale(1 1) rotate(0) translate(4 138)">
<title>Entity::getBaseDMG</title>
<polygon fill="white" stroke="none" points="-4,4 -4,-138 255,-138 255,4 -4,4"/>
<!-- Node1 -->
<g id="node1" class="node"><title>Node1</title>
<g id="a_node1"><a xlink:title="Gets Entity&#39;s Base Damage.">
<polygon fill="#bfbfbf" stroke="black" points="144,-57.5 144,-76.5 251,-76.5 251,-57.5 144,-57.5"/>
<text text-anchor="middle" x="197.5" y="-64.5" font-family="Helvetica,sans-Serif" font-size="10.00">Entity::getBaseDMG</text>
</a>
</g>
</g>
<!-- Node2 -->
<g id="node2" class="node"><title>Node2</title>
<g id="a_node2"><a xlink:href="class_player.html#ae30e579efad256523585a947932bcf7f" target="_top" xlink:title="Attack an Enemy.">
<polygon fill="white" stroke="black" points="0,-114.5 0,-133.5 108,-133.5 108,-114.5 0,-114.5"/>
<text text-anchor="middle" x="54" y="-121.5" font-family="Helvetica,sans-Serif" font-size="10.00">Player::attackEnemy</text>
</a>
</g>
</g>
<!-- Node1&#45;&gt;Node2 -->
<g id="edge1" class="edge"><title>Node1&#45;&gt;Node2</title>
<path fill="none" stroke="midnightblue" d="M165.792,-80.7352C148.852,-88.173 127.38,-97.3737 108,-105 99.8137,-108.221 90.8328,-111.526 82.6278,-114.457"/>
<polygon fill="midnightblue" stroke="midnightblue" points="167.458,-83.8256 175.193,-76.5848 164.631,-77.422 167.458,-83.8256"/>
</g>
<!-- Node3 -->
<g id="node3" class="node"><title>Node3</title>
<g id="a_node3"><a xlink:href="class_enemy.html#a558ca434ca4938c167580db520d2a7d1" target="_top" xlink:title="Attack Player without taking Damage from it.">
<polygon fill="white" stroke="black" points="0,-76.5 0,-95.5 108,-95.5 108,-76.5 0,-76.5"/>
<text text-anchor="middle" x="54" y="-83.5" font-family="Helvetica,sans-Serif" font-size="10.00">Enemy::attackPlayer</text>
</a>
</g>
</g>
<!-- Node1&#45;&gt;Node3 -->
<g id="edge2" class="edge"><title>Node1&#45;&gt;Node3</title>
<path fill="none" stroke="midnightblue" d="M133.864,-75.4105C125.301,-76.5603 116.578,-77.7315 108.205,-78.8558"/>
<polygon fill="midnightblue" stroke="midnightblue" points="134.365,-78.8747 143.811,-74.0749 133.434,-71.9369 134.365,-78.8747"/>
</g>
<!-- Node4 -->
<g id="node4" class="node"><title>Node4</title>
<g id="a_node4"><a xlink:href="class_player.html#a8eb7206d12e28c347a785530ab1ecf71" target="_top" xlink:title="Writes out the Player&#39;s info to an output.">
<polygon fill="white" stroke="black" points="2,-38.5 2,-57.5 106,-57.5 106,-38.5 2,-38.5"/>
<text text-anchor="middle" x="54" y="-45.5" font-family="Helvetica,sans-Serif" font-size="10.00">Player::getInfoEntity</text>
</a>
</g>
</g>
<!-- Node1&#45;&gt;Node4 -->
<g id="edge3" class="edge"><title>Node1&#45;&gt;Node4</title>
<path fill="none" stroke="midnightblue" d="M133.615,-58.556C124.488,-57.3305 115.185,-56.0813 106.322,-54.8913"/>
<polygon fill="midnightblue" stroke="midnightblue" points="133.434,-62.0631 143.811,-59.9251 134.365,-55.1253 133.434,-62.0631"/>
</g>
<!-- Node5 -->
<g id="node5" class="node"><title>Node5</title>
<g id="a_node5"><a xlink:href="class_enemy.html#a5e801697dc4608bc549ad08f3c584127" target="_top" xlink:title="Displays the info of an Enemy, dynamically controlable with an InfoPreset.">
<polygon fill="white" stroke="black" points="0.5,-0.5 0.5,-19.5 107.5,-19.5 107.5,-0.5 0.5,-0.5"/>
<text text-anchor="middle" x="54" y="-7.5" font-family="Helvetica,sans-Serif" font-size="10.00">Enemy::getInfoEntity</text>
</a>
</g>
</g>
<!-- Node1&#45;&gt;Node5 -->
<g id="edge4" class="edge"><title>Node1&#45;&gt;Node5</title>
<path fill="none" stroke="midnightblue" d="M165.792,-53.2648C148.852,-45.827 127.38,-36.6263 108,-29 99.8137,-25.7786 90.8328,-22.474 82.6278,-19.5427"/>
<polygon fill="midnightblue" stroke="midnightblue" points="164.631,-56.578 175.193,-57.4152 167.458,-50.1744 164.631,-56.578"/>
</g>
</g>
</svg>
