<?xml version="1.0" encoding="UTF-8" standalone="no"?>
<!DOCTYPE svg PUBLIC "-//W3C//DTD SVG 1.1//EN"
 "http://www.w3.org/Graphics/SVG/1.1/DTD/svg11.dtd">
<!-- Generated by graphviz version 2.38.0 (20140413.2041)
 -->
<!-- Title: String::getStr Pages: 1 -->
<svg width="381pt" height="218pt"
 viewBox="0.00 0.00 381.00 218.00" xmlns="http://www.w3.org/2000/svg" xmlns:xlink="http://www.w3.org/1999/xlink">
<g id="graph0" class="graph" transform="scale(1 1) rotate(0) translate(4 214)">
<title>String::getStr</title>
<polygon fill="white" stroke="none" points="-4,4 -4,-214 377,-214 377,4 -4,4"/>
<!-- Node1 -->
<g id="node1" class="node"><title>Node1</title>
<g id="a_node1"><a xlink:title="Return the content of the String.">
<polygon fill="#bfbfbf" stroke="black" points="299,-76.5 299,-95.5 373,-95.5 373,-76.5 299,-76.5"/>
<text text-anchor="middle" x="336" y="-83.5" font-family="Helvetica,sans-Serif" font-size="10.00">String::getStr</text>
</a>
</g>
</g>
<!-- Node2 -->
<g id="node2" class="node"><title>Node2</title>
<g id="a_node2"><a xlink:href="class_item.html#a0c339e14321d3aaf6d651891d1a97c6d" target="_top" xlink:title="Gets Description.">
<polygon fill="white" stroke="black" points="165,-152.5 165,-171.5 242,-171.5 242,-152.5 165,-152.5"/>
<text text-anchor="middle" x="203.5" y="-159.5" font-family="Helvetica,sans-Serif" font-size="10.00">Item::getDesc</text>
</a>
</g>
</g>
<!-- Node1&#45;&gt;Node2 -->
<g id="edge1" class="edge"><title>Node1&#45;&gt;Node2</title>
<path fill="none" stroke="midnightblue" d="M317.752,-102.581C303.897,-115.141 283.441,-132.049 263,-143 256.129,-146.681 248.419,-149.808 240.909,-152.397"/>
<polygon fill="midnightblue" stroke="midnightblue" points="320.147,-105.133 325.097,-95.7658 315.386,-100.002 320.147,-105.133"/>
</g>
<!-- Node3 -->
<g id="node3" class="node"><title>Node3</title>
<g id="a_node3"><a xlink:href="class_storage.html#a093724577dea913ff7a12c1fda138b4f" target="_top" xlink:title="Gets Description.">
<polygon fill="white" stroke="black" points="144,-114.5 144,-133.5 263,-133.5 263,-114.5 144,-114.5"/>
<text text-anchor="middle" x="203.5" y="-121.5" font-family="Helvetica,sans-Serif" font-size="10.00">Storage::getDescription</text>
</a>
</g>
</g>
<!-- Node1&#45;&gt;Node3 -->
<g id="edge2" class="edge"><title>Node1&#45;&gt;Node3</title>
<path fill="none" stroke="midnightblue" d="M292.448,-98.3906C274.577,-103.594 254.11,-109.554 237.42,-114.414"/>
<polygon fill="midnightblue" stroke="midnightblue" points="293.447,-101.745 302.069,-95.589 291.49,-95.0244 293.447,-101.745"/>
</g>
<!-- Node4 -->
<g id="node4" class="node"><title>Node4</title>
<g id="a_node4"><a xlink:href="class_entity.html#a915cd93caa3a2730a58c74c404e0df6d" target="_top" xlink:title="Gets Entity&#39;s name.">
<polygon fill="white" stroke="black" points="160,-76.5 160,-95.5 247,-95.5 247,-76.5 160,-76.5"/>
<text text-anchor="middle" x="203.5" y="-83.5" font-family="Helvetica,sans-Serif" font-size="10.00">Entity::getName</text>
</a>
</g>
</g>
<!-- Node1&#45;&gt;Node4 -->
<g id="edge3" class="edge"><title>Node1&#45;&gt;Node4</title>
<path fill="none" stroke="midnightblue" d="M288.926,-86C275.395,-86 260.655,-86 247.335,-86"/>
<polygon fill="midnightblue" stroke="midnightblue" points="288.995,-89.5001 298.995,-86 288.995,-82.5001 288.995,-89.5001"/>
</g>
<!-- Node10 -->
<g id="node10" class="node"><title>Node10</title>
<g id="a_node10"><a xlink:href="class_item.html#a32fb1297deede82e47cf3f6409cdbf92" target="_top" xlink:title="Gets Name.">
<polygon fill="white" stroke="black" points="163.5,-0.5 163.5,-19.5 243.5,-19.5 243.5,-0.5 163.5,-0.5"/>
<text text-anchor="middle" x="203.5" y="-7.5" font-family="Helvetica,sans-Serif" font-size="10.00">Item::getName</text>
</a>
</g>
</g>
<!-- Node1&#45;&gt;Node10 -->
<g id="edge9" class="edge"><title>Node1&#45;&gt;Node10</title>
<path fill="none" stroke="midnightblue" d="M317.752,-69.4192C303.897,-56.859 283.441,-39.9512 263,-29 256.129,-25.3187 248.419,-22.1919 240.909,-19.6027"/>
<polygon fill="midnightblue" stroke="midnightblue" points="315.386,-71.9983 325.097,-76.2342 320.147,-66.8668 315.386,-71.9983"/>
</g>
<!-- Node12 -->
<g id="node12" class="node"><title>Node12</title>
<g id="a_node12"><a xlink:href="class_storage.html#a3aa4b83a48ac183c3249ca0cbff8a33a" target="_top" xlink:title="Gets Name.">
<polygon fill="white" stroke="black" points="156,-38.5 156,-57.5 251,-57.5 251,-38.5 156,-38.5"/>
<text text-anchor="middle" x="203.5" y="-45.5" font-family="Helvetica,sans-Serif" font-size="10.00">Storage::getName</text>
</a>
</g>
</g>
<!-- Node1&#45;&gt;Node12 -->
<g id="edge11" class="edge"><title>Node1&#45;&gt;Node12</title>
<path fill="none" stroke="midnightblue" d="M292.448,-73.6094C274.577,-68.4055 254.11,-62.4459 237.42,-57.5859"/>
<polygon fill="midnightblue" stroke="midnightblue" points="291.49,-76.9756 302.069,-76.411 293.447,-70.2547 291.49,-76.9756"/>
</g>
<!-- Node5 -->
<g id="node5" class="node"><title>Node5</title>
<g id="a_node5"><a xlink:href="class_player.html#ae30e579efad256523585a947932bcf7f" target="_top" xlink:title="Attack an Enemy.">
<polygon fill="white" stroke="black" points="0,-190.5 0,-209.5 108,-209.5 108,-190.5 0,-190.5"/>
<text text-anchor="middle" x="54" y="-197.5" font-family="Helvetica,sans-Serif" font-size="10.00">Player::attackEnemy</text>
</a>
</g>
</g>
<!-- Node4&#45;&gt;Node5 -->
<g id="edge4" class="edge"><title>Node4&#45;&gt;Node5</title>
<path fill="none" stroke="midnightblue" d="M151.065,-99.8082C148.557,-101.359 146.18,-103.083 144,-105 115.931,-129.679 135.693,-155.9 108,-181 103.727,-184.873 98.6083,-187.97 93.2608,-190.443"/>
<polygon fill="midnightblue" stroke="midnightblue" points="152.729,-102.888 159.995,-95.1767 149.507,-96.6736 152.729,-102.888"/>
</g>
<!-- Node6 -->
<g id="node6" class="node"><title>Node6</title>
<g id="a_node6"><a xlink:href="class_enemy.html#a558ca434ca4938c167580db520d2a7d1" target="_top" xlink:title="Attack Player without taking Damage from it.">
<polygon fill="white" stroke="black" points="0,-152.5 0,-171.5 108,-171.5 108,-152.5 0,-152.5"/>
<text text-anchor="middle" x="54" y="-159.5" font-family="Helvetica,sans-Serif" font-size="10.00">Enemy::attackPlayer</text>
</a>
</g>
</g>
<!-- Node4&#45;&gt;Node6 -->
<g id="edge5" class="edge"><title>Node4&#45;&gt;Node6</title>
<path fill="none" stroke="midnightblue" d="M154.539,-99.3422C150.868,-101.031 147.308,-102.911 144,-105 124.329,-117.421 127.481,-130.283 108,-143 102.27,-146.74 95.7114,-149.855 89.205,-152.408"/>
<polygon fill="midnightblue" stroke="midnightblue" points="155.896,-102.569 163.816,-95.5306 153.236,-96.0939 155.896,-102.569"/>
</g>
<!-- Node7 -->
<g id="node7" class="node"><title>Node7</title>
<g id="a_node7"><a xlink:href="class_player.html#a8eb7206d12e28c347a785530ab1ecf71" target="_top" xlink:title="Writes out the Player&#39;s info to an output.">
<polygon fill="white" stroke="black" points="2,-38.5 2,-57.5 106,-57.5 106,-38.5 2,-38.5"/>
<text text-anchor="middle" x="54" y="-45.5" font-family="Helvetica,sans-Serif" font-size="10.00">Player::getInfoEntity</text>
</a>
</g>
</g>
<!-- Node4&#45;&gt;Node7 -->
<g id="edge6" class="edge"><title>Node4&#45;&gt;Node7</title>
<path fill="none" stroke="midnightblue" d="M155.486,-73.8879C134.943,-68.5956 111.2,-62.4787 91.9528,-57.5201"/>
<polygon fill="midnightblue" stroke="midnightblue" points="154.723,-77.3054 165.28,-76.411 156.469,-70.5268 154.723,-77.3054"/>
</g>
<!-- Node8 -->
<g id="node8" class="node"><title>Node8</title>
<g id="a_node8"><a xlink:href="class_enemy.html#a5e801697dc4608bc549ad08f3c584127" target="_top" xlink:title="Displays the info of an Enemy, dynamically controlable with an InfoPreset.">
<polygon fill="white" stroke="black" points="0.5,-114.5 0.5,-133.5 107.5,-133.5 107.5,-114.5 0.5,-114.5"/>
<text text-anchor="middle" x="54" y="-121.5" font-family="Helvetica,sans-Serif" font-size="10.00">Enemy::getInfoEntity</text>
</a>
</g>
</g>
<!-- Node4&#45;&gt;Node8 -->
<g id="edge7" class="edge"><title>Node4&#45;&gt;Node8</title>
<path fill="none" stroke="midnightblue" d="M155.486,-98.1121C134.943,-103.404 111.2,-109.521 91.9528,-114.48"/>
<polygon fill="midnightblue" stroke="midnightblue" points="156.469,-101.473 165.28,-95.589 154.723,-94.6946 156.469,-101.473"/>
</g>
<!-- Node9 -->
<g id="node9" class="node"><title>Node9</title>
<g id="a_node9"><a xlink:href="class_player.html#abcb7d3223f85a71cc8c69dee6f87f3e4" target="_top" xlink:title="Healing with an Item.">
<polygon fill="white" stroke="black" points="19,-76.5 19,-95.5 89,-95.5 89,-76.5 19,-76.5"/>
<text text-anchor="middle" x="54" y="-83.5" font-family="Helvetica,sans-Serif" font-size="10.00">Player::Heal</text>
</a>
</g>
</g>
<!-- Node4&#45;&gt;Node9 -->
<g id="edge8" class="edge"><title>Node4&#45;&gt;Node9</title>
<path fill="none" stroke="midnightblue" d="M149.835,-86C129.649,-86 107.161,-86 89.1522,-86"/>
<polygon fill="midnightblue" stroke="midnightblue" points="149.837,-89.5001 159.837,-86 149.837,-82.5001 149.837,-89.5001"/>
</g>
<!-- Node11 -->
<g id="node11" class="node"><title>Node11</title>
<g id="a_node11"><a xlink:href="class_player.html#a45b5020492d5e97efc1b5ff6bc2d1b26" target="_top" xlink:title="Attack an Enemy with a Weapon/Shield.">
<polygon fill="white" stroke="black" points="0,-0.5 0,-19.5 108,-19.5 108,-0.5 0,-0.5"/>
<text text-anchor="middle" x="54" y="-7.5" font-family="Helvetica,sans-Serif" font-size="10.00">Player::attackEnemy</text>
</a>
</g>
</g>
<!-- Node10&#45;&gt;Node11 -->
<g id="edge10" class="edge"><title>Node10&#45;&gt;Node11</title>
<path fill="none" stroke="midnightblue" d="M153.136,-10C138.705,-10 122.869,-10 108.21,-10"/>
<polygon fill="midnightblue" stroke="midnightblue" points="153.36,-13.5001 163.36,-10 153.36,-6.5001 153.36,-13.5001"/>
</g>
<!-- Node12&#45;&gt;Node7 -->
<g id="edge12" class="edge"><title>Node12&#45;&gt;Node7</title>
<path fill="none" stroke="midnightblue" d="M145.619,-48C132.649,-48 118.943,-48 106.226,-48"/>
<polygon fill="midnightblue" stroke="midnightblue" points="145.83,-51.5001 155.83,-48 145.83,-44.5001 145.83,-51.5001"/>
</g>
</g>
</svg>
