<?xml version="1.0" encoding="UTF-8" standalone="no"?>
<!DOCTYPE svg PUBLIC "-//W3C//DTD SVG 1.1//EN"
 "http://www.w3.org/Graphics/SVG/1.1/DTD/svg11.dtd">
<!-- Generated by graphviz version 2.38.0 (20140413.2041)
 -->
<!-- Title: Player::getStorageType Pages: 1 -->
<svg width="267pt" height="66pt"
 viewBox="0.00 0.00 267.00 66.00" xmlns="http://www.w3.org/2000/svg" xmlns:xlink="http://www.w3.org/1999/xlink">
<g id="graph0" class="graph" transform="scale(1 1) rotate(0) translate(4 62)">
<title>Player::getStorageType</title>
<polygon fill="white" stroke="none" points="-4,4 -4,-62 263,-62 263,4 -4,4"/>
<!-- Node1 -->
<g id="node1" class="node"><title>Node1</title>
<g id="a_node1"><a xlink:title="Gets Player&#39;s type of Storage.">
<polygon fill="#bfbfbf" stroke="black" points="140,-19.5 140,-38.5 259,-38.5 259,-19.5 140,-19.5"/>
<text text-anchor="middle" x="199.5" y="-26.5" font-family="Helvetica,sans-Serif" font-size="10.00">Player::getStorageType</text>
</a>
</g>
</g>
<!-- Node2 -->
<g id="node2" class="node"><title>Node2</title>
<g id="a_node2"><a xlink:href="class_player.html#a8eb7206d12e28c347a785530ab1ecf71" target="_top" xlink:title="Writes out the Player&#39;s info to an output.">
<polygon fill="white" stroke="black" points="0,-38.5 0,-57.5 104,-57.5 104,-38.5 0,-38.5"/>
<text text-anchor="middle" x="52" y="-45.5" font-family="Helvetica,sans-Serif" font-size="10.00">Player::getInfoEntity</text>
</a>
</g>
</g>
<!-- Node1&#45;&gt;Node2 -->
<g id="edge1" class="edge"><title>Node1&#45;&gt;Node2</title>
<path fill="none" stroke="midnightblue" d="M129.665,-37.9888C121.029,-39.1165 112.319,-40.2538 104.025,-41.337"/>
<polygon fill="midnightblue" stroke="midnightblue" points="130.276,-41.4387 139.739,-36.6733 129.37,-34.4977 130.276,-41.4387"/>
</g>
<!-- Node3 -->
<g id="node3" class="node"><title>Node3</title>
<g id="a_node3"><a xlink:href="class_player.html#abcb7d3223f85a71cc8c69dee6f87f3e4" target="_top" xlink:title="Healing with an Item.">
<polygon fill="white" stroke="black" points="17,-0.5 17,-19.5 87,-19.5 87,-0.5 17,-0.5"/>
<text text-anchor="middle" x="52" y="-7.5" font-family="Helvetica,sans-Serif" font-size="10.00">Player::Heal</text>
</a>
</g>
</g>
<!-- Node1&#45;&gt;Node3 -->
<g id="edge2" class="edge"><title>Node1&#45;&gt;Node3</title>
<path fill="none" stroke="midnightblue" d="M129.619,-20.0053C114.911,-18.0846 99.9904,-16.1362 87.2728,-14.4755"/>
<polygon fill="midnightblue" stroke="midnightblue" points="129.37,-23.5023 139.739,-21.3267 130.276,-16.5613 129.37,-23.5023"/>
</g>
</g>
</svg>
