<?xml version="1.0" encoding="UTF-8" standalone="no"?>
<!DOCTYPE svg PUBLIC "-//W3C//DTD SVG 1.1//EN"
 "http://www.w3.org/Graphics/SVG/1.1/DTD/svg11.dtd">
<!-- Generated by graphviz version 2.38.0 (20140413.2041)
 -->
<!-- Title: Entity::setHP Pages: 1 -->
<svg width="227pt" height="104pt"
 viewBox="0.00 0.00 227.00 104.00" xmlns="http://www.w3.org/2000/svg" xmlns:xlink="http://www.w3.org/1999/xlink">
<g id="graph0" class="graph" transform="scale(1 1) rotate(0) translate(4 100)">
<title>Entity::setHP</title>
<polygon fill="white" stroke="none" points="-4,4 -4,-100 223,-100 223,4 -4,4"/>
<!-- Node1 -->
<g id="node1" class="node"><title>Node1</title>
<g id="a_node1"><a xlink:title="Sets Entity&#39;s HP.">
<polygon fill="#bfbfbf" stroke="black" points="144,-38.5 144,-57.5 219,-57.5 219,-38.5 144,-38.5"/>
<text text-anchor="middle" x="181.5" y="-45.5" font-family="Helvetica,sans-Serif" font-size="10.00">Entity::setHP</text>
</a>
</g>
</g>
<!-- Node2 -->
<g id="node2" class="node"><title>Node2</title>
<g id="a_node2"><a xlink:href="class_player.html#ae30e579efad256523585a947932bcf7f" target="_top" xlink:title="Attack an Enemy.">
<polygon fill="white" stroke="black" points="0,-76.5 0,-95.5 108,-95.5 108,-76.5 0,-76.5"/>
<text text-anchor="middle" x="54" y="-83.5" font-family="Helvetica,sans-Serif" font-size="10.00">Player::attackEnemy</text>
</a>
</g>
</g>
<!-- Node1&#45;&gt;Node2 -->
<g id="edge1" class="edge"><title>Node1&#45;&gt;Node2</title>
<path fill="none" stroke="midnightblue" d="M139.101,-60.5353C122.028,-65.7048 102.561,-71.5991 86.6588,-76.4141"/>
<polygon fill="midnightblue" stroke="midnightblue" points="140.274,-63.8368 148.831,-57.589 138.246,-57.1372 140.274,-63.8368"/>
</g>
<!-- Node3 -->
<g id="node3" class="node"><title>Node3</title>
<g id="a_node3"><a xlink:href="class_enemy.html#a558ca434ca4938c167580db520d2a7d1" target="_top" xlink:title="Attack Player without taking Damage from it.">
<polygon fill="white" stroke="black" points="0,-38.5 0,-57.5 108,-57.5 108,-38.5 0,-38.5"/>
<text text-anchor="middle" x="54" y="-45.5" font-family="Helvetica,sans-Serif" font-size="10.00">Enemy::attackPlayer</text>
</a>
</g>
</g>
<!-- Node1&#45;&gt;Node3 -->
<g id="edge2" class="edge"><title>Node1&#45;&gt;Node3</title>
<path fill="none" stroke="midnightblue" d="M133.634,-48C125.354,-48 116.679,-48 108.239,-48"/>
<polygon fill="midnightblue" stroke="midnightblue" points="133.863,-51.5001 143.863,-48 133.863,-44.5001 133.863,-51.5001"/>
</g>
<!-- Node4 -->
<g id="node4" class="node"><title>Node4</title>
<g id="a_node4"><a xlink:href="class_player.html#abcb7d3223f85a71cc8c69dee6f87f3e4" target="_top" xlink:title="Healing with an Item.">
<polygon fill="white" stroke="black" points="19,-0.5 19,-19.5 89,-19.5 89,-0.5 19,-0.5"/>
<text text-anchor="middle" x="54" y="-7.5" font-family="Helvetica,sans-Serif" font-size="10.00">Player::Heal</text>
</a>
</g>
</g>
<!-- Node1&#45;&gt;Node4 -->
<g id="edge3" class="edge"><title>Node1&#45;&gt;Node4</title>
<path fill="none" stroke="midnightblue" d="M139.101,-35.4647C122.028,-30.2952 102.561,-24.4009 86.6588,-19.5859"/>
<polygon fill="midnightblue" stroke="midnightblue" points="138.246,-38.8628 148.831,-38.411 140.274,-32.1632 138.246,-38.8628"/>
</g>
</g>
</svg>
