<?xml version="1.0" encoding="UTF-8" standalone="no"?>
<!DOCTYPE svg PUBLIC "-//W3C//DTD SVG 1.1//EN"
 "http://www.w3.org/Graphics/SVG/1.1/DTD/svg11.dtd">
<!-- Generated by graphviz version 2.38.0 (20140413.2041)
 -->
<!-- Title: GenericArray::remove Pages: 1 -->
<svg width="347pt" height="28pt"
 viewBox="0.00 0.00 347.00 28.00" xmlns="http://www.w3.org/2000/svg" xmlns:xlink="http://www.w3.org/1999/xlink">
<g id="graph0" class="graph" transform="scale(1 1) rotate(0) translate(4 24)">
<title>GenericArray::remove</title>
<polygon fill="white" stroke="none" points="-4,4 -4,-24 343,-24 343,4 -4,4"/>
<!-- Node1 -->
<g id="node1" class="node"><title>Node1</title>
<g id="a_node1"><a xlink:title="Removes an Element from the Array.">
<polygon fill="#bfbfbf" stroke="black" points="229,-0.5 229,-19.5 339,-19.5 339,-0.5 229,-0.5"/>
<text text-anchor="middle" x="284" y="-7.5" font-family="Helvetica,sans-Serif" font-size="10.00">GenericArray::remove</text>
</a>
</g>
</g>
<!-- Node2 -->
<g id="node2" class="node"><title>Node2</title>
<g id="a_node2"><a xlink:href="class_storage.html#a0210115c208c5cfd5d52e66423f3d723" target="_top" xlink:title="Removes an Item from the Storage according to its index.">
<polygon fill="white" stroke="black" points="106,-0.5 106,-19.5 193,-19.5 193,-0.5 106,-0.5"/>
<text text-anchor="middle" x="149.5" y="-7.5" font-family="Helvetica,sans-Serif" font-size="10.00">Storage::remove</text>
</a>
</g>
</g>
<!-- Node1&#45;&gt;Node2 -->
<g id="edge1" class="edge"><title>Node1&#45;&gt;Node2</title>
<path fill="none" stroke="midnightblue" d="M218.624,-10C209.974,-10 201.28,-10 193.135,-10"/>
<polygon fill="midnightblue" stroke="midnightblue" points="218.725,-13.5001 228.725,-10 218.725,-6.5001 218.725,-13.5001"/>
</g>
<!-- Node3 -->
<g id="node3" class="node"><title>Node3</title>
<g id="a_node3"><a xlink:href="class_player.html#abcb7d3223f85a71cc8c69dee6f87f3e4" target="_top" xlink:title="Healing with an Item.">
<polygon fill="white" stroke="black" points="0,-0.5 0,-19.5 70,-19.5 70,-0.5 0,-0.5"/>
<text text-anchor="middle" x="35" y="-7.5" font-family="Helvetica,sans-Serif" font-size="10.00">Player::Heal</text>
</a>
</g>
</g>
<!-- Node2&#45;&gt;Node3 -->
<g id="edge2" class="edge"><title>Node2&#45;&gt;Node3</title>
<path fill="none" stroke="midnightblue" d="M95.8396,-10C87.1231,-10 78.2912,-10 70.1856,-10"/>
<polygon fill="midnightblue" stroke="midnightblue" points="95.9686,-13.5001 105.969,-10 95.9685,-6.5001 95.9686,-13.5001"/>
</g>
</g>
</svg>
