<?xml version="1.0" encoding="UTF-8" standalone="no"?>
<!DOCTYPE svg PUBLIC "-//W3C//DTD SVG 1.1//EN"
 "http://www.w3.org/Graphics/SVG/1.1/DTD/svg11.dtd">
<!-- Generated by graphviz version 2.38.0 (20140413.2041)
 -->
<!-- Title: Storage::add Pages: 1 -->
<svg width="229pt" height="66pt"
 viewBox="0.00 0.00 229.00 66.00" xmlns="http://www.w3.org/2000/svg" xmlns:xlink="http://www.w3.org/1999/xlink">
<g id="graph0" class="graph" transform="scale(1 1) rotate(0) translate(4 62)">
<title>Storage::add</title>
<polygon fill="white" stroke="none" points="-4,4 -4,-62 225,-62 225,4 -4,4"/>
<!-- Node1 -->
<g id="node1" class="node"><title>Node1</title>
<g id="a_node1"><a xlink:title="Adds an Item to the Storage.">
<polygon fill="#bfbfbf" stroke="black" points="0,-19.5 0,-38.5 72,-38.5 72,-19.5 0,-19.5"/>
<text text-anchor="middle" x="36" y="-26.5" font-family="Helvetica,sans-Serif" font-size="10.00">Storage::add</text>
</a>
</g>
</g>
<!-- Node2 -->
<g id="node2" class="node"><title>Node2</title>
<g id="a_node2"><a xlink:href="class_generic_array.html#a6ba41303a7269590b84ec818b7be2b1f" target="_top" xlink:title="Adding an Element to the Array.">
<polygon fill="white" stroke="black" points="117,-38.5 117,-57.5 212,-57.5 212,-38.5 117,-38.5"/>
<text text-anchor="middle" x="164.5" y="-45.5" font-family="Helvetica,sans-Serif" font-size="10.00">GenericArray::add</text>
</a>
</g>
</g>
<!-- Node1&#45;&gt;Node2 -->
<g id="edge1" class="edge"><title>Node1&#45;&gt;Node2</title>
<path fill="none" stroke="midnightblue" d="M72.2373,-34.2926C82.8674,-35.8892 94.8204,-37.6845 106.487,-39.4369"/>
<polygon fill="midnightblue" stroke="midnightblue" points="106.217,-42.9355 116.626,-40.9597 107.257,-36.0131 106.217,-42.9355"/>
</g>
<!-- Node3 -->
<g id="node3" class="node"><title>Node3</title>
<g id="a_node3"><a xlink:href="class_generic_array.html#a5dbfcd8d8b33fe3806650d7aa3e1ca88" target="_top" xlink:title="Get Size of the Array.">
<polygon fill="white" stroke="black" points="108,-0.5 108,-19.5 221,-19.5 221,-0.5 108,-0.5"/>
<text text-anchor="middle" x="164.5" y="-7.5" font-family="Helvetica,sans-Serif" font-size="10.00">GenericArray::getSize</text>
</a>
</g>
</g>
<!-- Node1&#45;&gt;Node3 -->
<g id="edge2" class="edge"><title>Node1&#45;&gt;Node3</title>
<path fill="none" stroke="midnightblue" d="M72.2373,-23.7074C80.2047,-22.5108 88.9153,-21.2024 97.6917,-19.8843"/>
<polygon fill="midnightblue" stroke="midnightblue" points="98.2232,-23.3438 107.592,-18.3972 97.1834,-16.4214 98.2232,-23.3438"/>
</g>
</g>
</svg>
