<?xml version="1.0" encoding="UTF-8" standalone="no"?>
<!DOCTYPE svg PUBLIC "-//W3C//DTD SVG 1.1//EN"
 "http://www.w3.org/Graphics/SVG/1.1/DTD/svg11.dtd">
<!-- Generated by graphviz version 2.38.0 (20140413.2041)
 -->
<!-- Title: Player::Heal Pages: 1 -->
<svg width="382pt" height="218pt"
 viewBox="0.00 0.00 382.00 218.00" xmlns="http://www.w3.org/2000/svg" xmlns:xlink="http://www.w3.org/1999/xlink">
<g id="graph0" class="graph" transform="scale(1 1) rotate(0) translate(4 214)">
<title>Player::Heal</title>
<polygon fill="white" stroke="none" points="-4,4 -4,-214 378,-214 378,4 -4,4"/>
<!-- Node1 -->
<g id="node1" class="node"><title>Node1</title>
<g id="a_node1"><a xlink:title="Healing with an Item.">
<polygon fill="#bfbfbf" stroke="black" points="0,-95.5 0,-114.5 70,-114.5 70,-95.5 0,-95.5"/>
<text text-anchor="middle" x="35" y="-102.5" font-family="Helvetica,sans-Serif" font-size="10.00">Player::Heal</text>
</a>
</g>
</g>
<!-- Node2 -->
<g id="node2" class="node"><title>Node2</title>
<g id="a_node2"><a xlink:href="class_entity.html#a2e1e28a69df4f3e85056fd00425373c1" target="_top" xlink:title="Gets Entity&#39;s HP.">
<polygon fill="white" stroke="black" points="128,-190.5 128,-209.5 203,-209.5 203,-190.5 128,-190.5"/>
<text text-anchor="middle" x="165.5" y="-197.5" font-family="Helvetica,sans-Serif" font-size="10.00">Entity::getHP</text>
</a>
</g>
</g>
<!-- Node1&#45;&gt;Node2 -->
<g id="edge1" class="edge"><title>Node1&#45;&gt;Node2</title>
<path fill="none" stroke="midnightblue" d="M42.3607,-114.641C53.4277,-130.686 77.7633,-162.891 106,-181 109.846,-183.466 114.039,-185.639 118.358,-187.547"/>
<polygon fill="midnightblue" stroke="midnightblue" points="117.337,-190.907 127.924,-191.313 119.902,-184.393 117.337,-190.907"/>
</g>
<!-- Node3 -->
<g id="node3" class="node"><title>Node3</title>
<g id="a_node3"><a xlink:href="class_entity.html#a29a6b9846b3059a41c81858a744d6c33" target="_top" xlink:title="Gets Entity&#39;s MaxHP.">
<polygon fill="white" stroke="black" points="118.5,-152.5 118.5,-171.5 212.5,-171.5 212.5,-152.5 118.5,-152.5"/>
<text text-anchor="middle" x="165.5" y="-159.5" font-family="Helvetica,sans-Serif" font-size="10.00">Entity::getMaxHP</text>
</a>
</g>
</g>
<!-- Node1&#45;&gt;Node3 -->
<g id="edge2" class="edge"><title>Node1&#45;&gt;Node3</title>
<path fill="none" stroke="midnightblue" d="M51.7097,-114.612C65.6309,-122.864 86.6875,-134.705 106,-143 111.09,-145.186 116.519,-147.267 121.941,-149.194"/>
<polygon fill="midnightblue" stroke="midnightblue" points="121.023,-152.579 131.618,-152.489 123.28,-145.953 121.023,-152.579"/>
</g>
<!-- Node4 -->
<g id="node4" class="node"><title>Node4</title>
<g id="a_node4"><a xlink:href="class_entity.html#a915cd93caa3a2730a58c74c404e0df6d" target="_top" xlink:title="Gets Entity&#39;s name.">
<polygon fill="white" stroke="black" points="122,-114.5 122,-133.5 209,-133.5 209,-114.5 122,-114.5"/>
<text text-anchor="middle" x="165.5" y="-121.5" font-family="Helvetica,sans-Serif" font-size="10.00">Entity::getName</text>
</a>
</g>
</g>
<!-- Node1&#45;&gt;Node4 -->
<g id="edge3" class="edge"><title>Node1&#45;&gt;Node4</title>
<path fill="none" stroke="midnightblue" d="M70.0983,-110.042C82.9021,-111.935 97.772,-114.134 111.87,-116.218"/>
<polygon fill="midnightblue" stroke="midnightblue" points="111.554,-119.709 121.958,-117.71 112.578,-112.785 111.554,-119.709"/>
</g>
<!-- Node6 -->
<g id="node6" class="node"><title>Node6</title>
<g id="a_node6"><a xlink:href="class_player.html#af5869694206295777e8f6c104c9165cb" target="_top" xlink:title="Gets Player&#39;s type of Storage.">
<polygon fill="white" stroke="black" points="106,-76.5 106,-95.5 225,-95.5 225,-76.5 106,-76.5"/>
<text text-anchor="middle" x="165.5" y="-83.5" font-family="Helvetica,sans-Serif" font-size="10.00">Player::getStorageType</text>
</a>
</g>
</g>
<!-- Node1&#45;&gt;Node6 -->
<g id="edge5" class="edge"><title>Node1&#45;&gt;Node6</title>
<path fill="none" stroke="midnightblue" d="M70.0983,-99.9582C78.0936,-98.7761 86.8944,-97.4748 95.8099,-96.1565"/>
<polygon fill="midnightblue" stroke="midnightblue" points="96.5071,-99.5916 105.888,-94.6664 95.4832,-92.6669 96.5071,-99.5916"/>
</g>
<!-- Node7 -->
<g id="node7" class="node"><title>Node7</title>
<g id="a_node7"><a xlink:href="class_storage.html#a0210115c208c5cfd5d52e66423f3d723" target="_top" xlink:title="Removes an Item from the Storage according to its index.">
<polygon fill="white" stroke="black" points="122,-38.5 122,-57.5 209,-57.5 209,-38.5 122,-38.5"/>
<text text-anchor="middle" x="165.5" y="-45.5" font-family="Helvetica,sans-Serif" font-size="10.00">Storage::remove</text>
</a>
</g>
</g>
<!-- Node1&#45;&gt;Node7 -->
<g id="edge6" class="edge"><title>Node1&#45;&gt;Node7</title>
<path fill="none" stroke="midnightblue" d="M51.7097,-95.3881C65.6309,-87.1362 86.6875,-75.295 106,-67 111.09,-64.8138 116.519,-62.7335 121.941,-60.8058"/>
<polygon fill="midnightblue" stroke="midnightblue" points="123.28,-64.0474 131.618,-57.5111 121.023,-57.421 123.28,-64.0474"/>
</g>
<!-- Node10 -->
<g id="node10" class="node"><title>Node10</title>
<g id="a_node10"><a xlink:href="class_entity.html#a3b040bb229db233ad6ce5a62b129d3ef" target="_top" xlink:title="Sets Entity&#39;s HP.">
<polygon fill="white" stroke="black" points="128,-0.5 128,-19.5 203,-19.5 203,-0.5 128,-0.5"/>
<text text-anchor="middle" x="165.5" y="-7.5" font-family="Helvetica,sans-Serif" font-size="10.00">Entity::setHP</text>
</a>
</g>
</g>
<!-- Node1&#45;&gt;Node10 -->
<g id="edge9" class="edge"><title>Node1&#45;&gt;Node10</title>
<path fill="none" stroke="midnightblue" d="M42.3607,-95.3594C53.4277,-79.3143 77.7633,-47.109 106,-29 109.846,-26.5338 114.039,-24.3612 118.358,-22.453"/>
<polygon fill="midnightblue" stroke="midnightblue" points="119.902,-25.6068 127.924,-18.6867 117.337,-19.0935 119.902,-25.6068"/>
</g>
<!-- Node5 -->
<g id="node5" class="node"><title>Node5</title>
<g id="a_node5"><a xlink:href="class_string.html#a9bd764caa857cd20c6d9c720f737982b" target="_top" xlink:title="Return the content of the String.">
<polygon fill="white" stroke="black" points="280.5,-114.5 280.5,-133.5 354.5,-133.5 354.5,-114.5 280.5,-114.5"/>
<text text-anchor="middle" x="317.5" y="-121.5" font-family="Helvetica,sans-Serif" font-size="10.00">String::getStr</text>
</a>
</g>
</g>
<!-- Node4&#45;&gt;Node5 -->
<g id="edge4" class="edge"><title>Node4&#45;&gt;Node5</title>
<path fill="none" stroke="midnightblue" d="M209.083,-124C228.172,-124 250.73,-124 270.234,-124"/>
<polygon fill="midnightblue" stroke="midnightblue" points="270.416,-127.5 280.416,-124 270.416,-120.5 270.416,-127.5"/>
</g>
<!-- Node8 -->
<g id="node8" class="node"><title>Node8</title>
<g id="a_node8"><a xlink:href="class_generic_array.html#a5dbfcd8d8b33fe3806650d7aa3e1ca88" target="_top" xlink:title="Get Size of the Array.">
<polygon fill="white" stroke="black" points="261,-57.5 261,-76.5 374,-76.5 374,-57.5 261,-57.5"/>
<text text-anchor="middle" x="317.5" y="-64.5" font-family="Helvetica,sans-Serif" font-size="10.00">GenericArray::getSize</text>
</a>
</g>
</g>
<!-- Node7&#45;&gt;Node8 -->
<g id="edge7" class="edge"><title>Node7&#45;&gt;Node8</title>
<path fill="none" stroke="midnightblue" d="M209.083,-53.3938C222.046,-55.0359 236.61,-56.8806 250.731,-58.6692"/>
<polygon fill="midnightblue" stroke="midnightblue" points="250.545,-62.1736 260.905,-59.958 251.424,-55.229 250.545,-62.1736"/>
</g>
<!-- Node9 -->
<g id="node9" class="node"><title>Node9</title>
<g id="a_node9"><a xlink:href="class_generic_array.html#ac934ab0bd415faae866e173bde54c564" target="_top" xlink:title="Removes an Element from the Array.">
<polygon fill="white" stroke="black" points="262.5,-19.5 262.5,-38.5 372.5,-38.5 372.5,-19.5 262.5,-19.5"/>
<text text-anchor="middle" x="317.5" y="-26.5" font-family="Helvetica,sans-Serif" font-size="10.00">GenericArray::remove</text>
</a>
</g>
</g>
<!-- Node7&#45;&gt;Node9 -->
<g id="edge8" class="edge"><title>Node7&#45;&gt;Node9</title>
<path fill="none" stroke="midnightblue" d="M209.083,-42.6062C222.524,-40.9036 237.686,-38.9831 252.29,-37.1333"/>
<polygon fill="midnightblue" stroke="midnightblue" points="252.803,-40.5964 262.284,-35.8674 251.923,-33.6519 252.803,-40.5964"/>
</g>
</g>
</svg>
