<?xml version="1.0" encoding="UTF-8" standalone="no"?>
<!DOCTYPE svg PUBLIC "-//W3C//DTD SVG 1.1//EN"
 "http://www.w3.org/Graphics/SVG/1.1/DTD/svg11.dtd">
<!-- Generated by graphviz version 2.38.0 (20140413.2041)
 -->
<!-- Title: Graphical Class Hierarchy Pages: 1 -->
<svg width="133pt" height="66pt"
 viewBox="0.00 0.00 133.00 66.00" xmlns="http://www.w3.org/2000/svg" xmlns:xlink="http://www.w3.org/1999/xlink">
<g id="graph0" class="graph" transform="scale(1 1) rotate(0) translate(4 62)">
<title>Graphical Class Hierarchy</title>
<polygon fill="white" stroke="none" points="-4,4 -4,-62 129,-62 129,4 -4,4"/>
<!-- Node0 -->
<g id="node1" class="node"><title>Node0</title>
<g id="a_node1"><a xlink:href="class_entity.html" target="_top" xlink:title="An alive Entity can be a Player or an Enemy (for now). It has HP, a Name and basic attributes,...">
<polygon fill="white" stroke="black" points="0,-19.5 0,-38.5 42,-38.5 42,-19.5 0,-19.5"/>
<text text-anchor="middle" x="21" y="-26.5" font-family="Helvetica,sans-Serif" font-size="10.00">Entity</text>
</a>
</g>
</g>
<!-- Node1 -->
<g id="node2" class="node"><title>Node1</title>
<g id="a_node2"><a xlink:href="class_enemy.html" target="_top" xlink:title="Enemy can attack a Player without the Player damaging it, every Enemy will have a Level,...">
<polygon fill="white" stroke="black" points="78,-38.5 78,-57.5 125,-57.5 125,-38.5 78,-38.5"/>
<text text-anchor="middle" x="101.5" y="-45.5" font-family="Helvetica,sans-Serif" font-size="10.00">Enemy</text>
</a>
</g>
</g>
<!-- Node0&#45;&gt;Node1 -->
<g id="edge1" class="edge"><title>Node0&#45;&gt;Node1</title>
<path fill="none" stroke="midnightblue" d="M52.202,-36.31C60.7294,-38.374 69.8595,-40.5838 77.8604,-42.5203"/>
<polygon fill="midnightblue" stroke="midnightblue" points="52.7584,-32.8437 42.2157,-33.893 51.1117,-39.6473 52.7584,-32.8437"/>
</g>
<!-- Node2 -->
<g id="node3" class="node"><title>Node2</title>
<g id="a_node3"><a xlink:href="class_player.html" target="_top" xlink:title="Player has Gold and a Storage in which it can hold some Item. The Player will be able to spend Gold i...">
<polygon fill="white" stroke="black" points="79.5,-0.5 79.5,-19.5 123.5,-19.5 123.5,-0.5 79.5,-0.5"/>
<text text-anchor="middle" x="101.5" y="-7.5" font-family="Helvetica,sans-Serif" font-size="10.00">Player</text>
</a>
</g>
</g>
<!-- Node0&#45;&gt;Node2 -->
<g id="edge2" class="edge"><title>Node0&#45;&gt;Node2</title>
<path fill="none" stroke="midnightblue" d="M52.0498,-21.7268C61.1201,-19.5314 70.8849,-17.168 79.2552,-15.1421"/>
<polygon fill="midnightblue" stroke="midnightblue" points="51.1117,-18.3527 42.2157,-24.107 52.7584,-25.1563 51.1117,-18.3527"/>
</g>
</g>
</svg>
